<?xml version="1.0" encoding="UTF-8" standalone="no"?>
<!-- Created with Inkscape (http://www.inkscape.org/) -->

<svg
   xmlns:dc="http://purl.org/dc/elements/1.1/"
   xmlns:cc="http://creativecommons.org/ns#"
   xmlns:rdf="http://www.w3.org/1999/02/22-rdf-syntax-ns#"
   xmlns:svg="http://www.w3.org/2000/svg"
   xmlns="http://www.w3.org/2000/svg"
   xmlns:sodipodi="http://sodipodi.sourceforge.net/DTD/sodipodi-0.dtd"
   xmlns:inkscape="http://www.inkscape.org/namespaces/inkscape"
   id="svg3180"
   version="1.1"
   inkscape:version="0.48.4 r9939"
   width="4200"
   height="2550"
   sodipodi:docname="brainbutterflydark.svg">
  <metadata
     id="metadata3186">
    <rdf:RDF>
      <cc:Work
         rdf:about="">
        <dc:format>image/svg+xml</dc:format>
        <dc:type
           rdf:resource="http://purl.org/dc/dcmitype/StillImage" />
        <dc:title></dc:title>
      </cc:Work>
    </rdf:RDF>
  </metadata>
  <defs
     id="defs3184" />
  <sodipodi:namedview
     pagecolor="#ffffff"
     bordercolor="#666666"
     borderopacity="1"
     objecttolerance="10"
     gridtolerance="10"
     guidetolerance="10"
     inkscape:pageopacity="0"
     inkscape:pageshadow="2"
     inkscape:window-width="1535"
     inkscape:window-height="876"
     id="namedview3182"
     showgrid="false"
     inkscape:zoom="0.27809524"
     inkscape:cx="468.30117"
     inkscape:cy="1992.6942"
     inkscape:window-x="65"
     inkscape:window-y="24"
     inkscape:window-maximized="1"
     inkscape:current-layer="svg3180" />
  <g
     id="g3208"
     transform="translate(900.77053,25.171233)">
    <path
       style="fill:#fd1268;fill-opacity:1;opacity:1"
       d="m 296.87136,964.55749 c -0.8911,0.2112 -2.6029,0.5689 -3.804,0.7949 -1.2011,0.226 -2.7204,0.6984 -3.3764,1.0497 -0.772,0.4135 -4.1599,0.6387 -9.6086,0.6387 l -8.4162,0 -2.1293,-1.6174 c -1.1711,-0.8897 -3.087,-2.3458 -4.2577,-3.236 -1.1706,-0.8902 -2.5892,-1.6185 -3.1524,-1.6185 -0.5631,0 -2.237,0.8244 -3.7198,1.832 -2.7765,1.8867 -7.0631,3.6292 -14.20217,5.773 -2.972,0.8926 -5.3669,1.2179 -8.7352,1.1869 -5.4925,-0.051 -17.4401,-1.3247 -18.4551,-1.9682 -0.9221,-0.5846 -3.845,1.3945 -5.2937,3.5844 -0.6006,0.9079 -1.9518,2.1249 -3.0027,2.7045 -6.2785,3.4628 -8.1151,4.2926 -10.4764,4.7338 -1.4445,0.2699 -3.9163,0.7355 -5.4927,1.0348 -3.5539,0.6747 -14.0588,0.1455 -17.2058,-0.8666 -1.9932,-0.6411 -6.6126,-2.8408 -9.4093,-4.4807 -2.4042,-1.4097 -5.5852,-2.2487 -8.8735,-2.3402 -3.2528,-0.091 -3.7868,0.038 -4.5351,1.0934 -0.9334,1.3164 -2.3918,1.5514 -3.4066,0.5489 -0.8017,-0.7919 -0.8553,-2.7148 -0.097,-3.4641 0.9399,-0.9285 -0.9228,-4.3813 -3.2697,-6.0607 -5.8136,-4.1602 -10.7965,-8.806 -13.442,-12.5325 -2.6591,-3.7455 -5.8923,-12.6958 -6.5076,-18.0147 -0.2059,-1.7798 -0.5824,-3.487 -0.8368,-3.7938 -0.2543,-0.3068 -0.7014,-2.0057 -0.9935,-3.7753 -0.2921,-1.7696 -0.7974,-3.9007 -1.1228,-4.7357 -0.3254,-0.835 -0.5917,-2.9746 -0.5917,-4.7545 0,-1.78 -0.3071,-3.7665 -0.6824,-4.4144 -0.4688,-0.8091 -0.6825,-3.9121 -0.6825,-9.9096 l 0,-8.7314 -1.7743,-1.8111 c -2.2822,-2.0545 -1.5916,-3.3487 -0.1365,-5.3509 1.1421,-1.5575 1.6379,-2.8596 1.6379,-4.302 0,-3.3955 2.9226,-8.1387 7.7374,-12.5575 4.5672,-4.1916 4.4677,-4.1328 12.903,-7.622 1.2931,-0.5349 3.0742,-1.8745 3.9581,-2.9769 1.3302,-1.6591 1.6056,-2.5022 1.5987,-4.8932 -0.01,-1.5888 -0.1984,-3.1841 -0.4306,-3.5452 -0.2323,-0.3611 -2.1176,-1.1738 -4.1894,-1.8059 -4.1374,-1.2624 -13.2385,-1.5617 -15.6465,-0.5146 -1.6336,0.7104 -10.4775,1.7264 -15.4849,1.779 -2.1019,0.022 -5.4848,-0.245 -7.5174,-0.5937 -3.2481,-0.557 -3.942602,-0.5193 -5.732502,0.3114 l -2.0367,0.9453 -0.273,6.2969 c -0.32,7.3842 -0.5931,7.9118 -6.1676,11.9195 -4.6124,3.316 -8.2115,4.3091 -15.6704,4.3238 -5.6533,0.011 -5.7773,-0.016 -8.976,-1.9633 -1.784,-1.0859 -3.4418,-1.9744 -3.684,-1.9744 -0.2421,0 -1.6078,0.8214 -3.0348,1.8254 -4.6135,3.2459 -7.2045,4.1072 -12.3561,4.1072 -2.5493,0 -5.3266,-0.2568 -6.1719,-0.5707 -2.0295,-0.7535 -5.885,-4.5117 -7.6134,-7.4212 -1.3039,-2.1948 -1.3731,-2.692 -1.2022,-8.6293 0.1844,-6.4089 0.255,-6.6726 3.0949,-11.575 0.6496,-1.1214 1.1811,-2.1529 1.1811,-2.2922 0,-0.1393 -0.8884,-0.2532 -1.9741,-0.2532 -1.7693,0 -4.2214,0.6049 -9.2179,2.2739 -0.9008,0.301 -2.7434,0.744 -4.0946,0.9847 -2.8197,0.5022 -6.63,1.4402 -9.0082,2.2177 -0.9008003,0.2944 -5.4459003,0.6623 -10.10010029,0.8173 -4.70710001,0.1569 -9.65700001,0.618 -11.15459971,1.0391 -1.6569,0.466 -5.3313,0.7603 -9.5541,0.7654 -6.9089,0.01 -9.3519,0.5177 -7.6807,1.6015 0.4504,0.2921 1.4565,0.5348 2.2356,0.5393 1.8151,0.011 3.2239,1.5526 3.2239,3.5289 0,1.1696 0.7005,2.199 2.8662,4.2116 1.5764,1.4651 3.7768,3.2333 4.8896,3.9295 1.1129,0.6962 3.8716,3.393 6.1304997,5.993 4.1365,4.761 6.4724,9.2319 7.2286,13.8356 1.46082001,3.0754 4.21025,12.7971 3.9982,9.399 0,-1.1613 -0.4299,-2.8881 -0.9554,-3.8374 l -0.95539999,-1.7261 -0.1706,4.045 c -0.094,2.2247 0.078,4.8944 0.38149999,5.9326 0.3037,1.0382 0.679,3.1875 0.8341,4.7762 0.1552,1.5887 0.5605,3.2199 0.9008,3.625 0.701,0.8344 0.8516,7.2451 0.6474,27.566 l -0.1365,13.5852 -2.0473,2.3882 c -1.12599999,1.3135 -2.4763,3.0878 -3.0006,3.9429 -4.4443,7.2483 -9.7648997,13.6773 -13.6531997,16.4976 -4.2277,3.0666 -7.2877,4.2805 -11.5991,4.6015 -1.8016,0.1341 -3.5214,0.4418 -3.8217,0.6835 -0.3002,0.2419 -1.5286,0.5927 -2.7297,0.7797 -2.0523,0.3196 -5.0143,1.0066 -10.5634,2.4501 -1.3058,0.3397 -6.8335,0.7167 -12.2839,0.8379 -11.1984,0.2489 -12.4391,0.02 -19.653,-3.6272 -2.3561,-1.1913 -5.4218,-2.3267 -6.8126,-2.5232 l -2.5288,-0.3573 -0.454,-2.6754 c -0.2497,-1.4716 -0.7362,-3.0113 -1.081,-3.4218 -0.8583,-1.0215 -4.228,-0.5203 -6.2095,0.9236 -3.2178,2.3447 -7.281398,3.4936 -13.025198,3.6826 -3.0027,0.099 -5.9508,0.3986 -6.5514,0.6663 -1.9998,0.8913 -8.5209,1.0356 -11.1519,0.2467 -1.4162,-0.4246 -4.9779,-0.7595 -8.2293,-0.7736 -3.9281,-0.017 -6.1621,-0.2676 -7.0974,-0.7958 -0.8651,-0.4885 -2.9888,-0.7777 -5.8003,-0.7899 -2.4962,-0.011 -5.45016,-0.3727 -6.75647,-0.8281 -1.27659,-0.445 -3.85621,-0.8089 -5.73248,-0.8089 -1.87626,0 -4.45588,-0.3641 -5.73247,-0.809 -1.2766,-0.445 -3.12197,-0.809 -4.10086,-0.809 -0.97888,0 -2.48347,-0.3625 -3.34356,-0.8057 -0.86009,-0.4431 -2.05512,-0.8118 -2.65566,-0.8192 -2.83966,-0.035 -12.37042,-7.9873 -14.35462,-11.9767 -0.6315,-1.2697 -1.54881,-3.6434 -2.03852,-5.2749 -1.58108,-5.2675 -1.60668,-5.2848 -7.84962,-5.2994 -4.4109,-0.01 -6.26626,-0.2825 -9.7082,-1.4245 -2.34033,-0.7765 -4.87168,-1.8203 -5.62525,-2.3194 -2.25265,-1.4923 -4.55962,-2.6356 -6.03674,-2.9916 -2.70458,-0.6521 -12.7855,-7.7873 -16.62539,-11.7674 -4.76795,-4.9421 -5.4732,-6.0479 -5.97804,-9.3736 -0.35034,-2.3077 -0.49676,-2.5429 -1.08699,-1.7455 -0.63243,0.8545 -0.76783,0.8315 -1.85858,-0.3155 -2.23992,-2.3554 -0.91949,-6.4485 1.75343,-5.4352 0.61862,0.2345 0.91053,-0.2046 1.1662,-1.7547 0.18754,-1.1372 0.58024,-2.645 0.87265,-3.3508 0.29241,-0.7057 0.461,-1.3125 0.37469,-1.3483 -0.0863,-0.036 -0.93183,-0.4898 -1.879,-1.0089 -0.94717,-0.5191 -2.35982,-0.9439 -3.13922,-0.9439 -1.24143,0 -1.41712,0.2224 -1.41712,1.7937 -3.85574,-0.3072 -3.99249,-6.6262 -5.96101,-9.9557 -1.67339,-2.7714 -4.80234,-9.2006 -5.21448,-10.7144 -0.36737,-1.3492 -3.08882,-7.407 -4.24012,-9.4382 -0.33631,-0.5933 -1.93229,-3.6815 -3.54666,-6.8628 -1.61438,-3.1812 -3.16755,-5.9259 -3.45144,-6.0992 8.8705,12.5195 -8.41031,-11.6839 -2.02832,-11.3907 l 1.01689,-1.3068 c 0.55932,-0.7187 1.02234,-1.4716 1.02906,-1.6731 0.007,-0.2015 1.16877,-1.1374 2.58245,-2.08 2.27105,-1.5141 2.90686,-1.686 5.45951,-1.477 2.55761,0.2096 2.88917,0.1192 2.88917,-0.7869 0,-0.563 -0.23727,-1.4617 -0.52728,-1.9969 -0.29001,-0.5353 -0.79174,-2.40027 -1.115,-4.14435 -1.222,-6.59364 -1.46467,-7.53498 -2.41632,-9.37333 -1.02955,-1.98882 -4.04407,-5.39326 -4.77548,-5.39326 -0.23689,0 -1.70555,-0.77496 -3.2638,-1.72207 -2.45585,-1.49281 -7.57266,-3.61166 -11.10501,-4.59857 -2.12091,-0.59261 -8.3811,-5.04777 -9.50996,-6.7679 -0.6291,-0.9586 -1.76331,-2.57798 -2.52049,-3.59855 -0.75724,-1.02057 -1.50688,-2.47675 -1.66586,-3.23596 -0.15904,-0.75921 -0.65776,-2.62814 -1.10833,-4.15314 -0.73398,-2.4844 -0.7307,-2.98215 0.0317,-4.78501 0.4681,-1.1067 0.85108,-2.72656 0.85108,-3.59973 0,-2.90503 2.12888,-5.73342 7.53526,-10.01104 1.96821,-1.5573 4.0188,-2.83146 4.55689,-2.83146 0.53808,0 2.39825,-0.65178 4.13371,-1.44836 2.82617,-1.29724 3.81035,-1.45198 9.43381,-1.48315 6.4991,-0.0361 6.8383,0.0388 13.37578,2.94488 4.29171,1.90787 7.03151,2.29824 9.36632,1.33457 2.34879,-0.9695 3.01916,-0.69692 4.44349,1.80663 0.8935,1.57041 1.92557,2.36069 4.59041,3.51469 1.89078,0.81886 4.23772,1.87648 5.2154,2.35038 2.16732,1.05045 2.87279,0.63269 0.98976,-0.58614 -2.96981,-1.92227 -8.49985,-7.67893 -8.49985,-8.84814 0,-1.17368 -2.28087,-5.26932 -4.7721,-8.56892 -0.70706,-0.93649 -1.42503,-2.55193 -1.59554,-3.58981 -0.25905,-1.57694 -0.0733,-2.09049 1.12985,-3.12389 1.68202,-1.44475 4.39435,-5.81017 3.90829,-6.29027 -0.63679,-0.62907 -5.9508,-0.0313 -7.26103,0.81675 -0.72431,0.46884 -2.2587,2.20833 -3.40973,3.86552 -5.05937,7.28409 -9.54676,10.00186 -18.12828,10.97944 -3.90223,0.44452 -5.20722,0.39129 -7.37033,-0.30056 -1.44567,-0.46242 -3.61119,-1.00223 -4.81228,-1.19952 -4.45915,-0.73262 -7.2667,-2.49201 -13.3309,-8.3539 -3.66573,-3.54348 -7.11941,-9.33655 -7.95417,-13.34213 -0.2002,-0.96064 -0.59077,-1.8851 -0.8679,-2.05429 -0.27717,-0.16924 -0.50396,-1.69855 -0.50396,-3.39851 0,-1.69996 -0.36852,-4.48849 -0.81893,-6.19676 -0.58908,-2.23416 -0.82984,-6.16396 -0.85774,-14.00097 -0.0519,-14.46101 -0.46744,-18.7465 -2.02067,-20.82183 -0.7271,-0.97154 -1.21622,-2.40486 -1.21622,-3.56414 0,-2.77715 -1.86791,-6.45681 -5.39617,-10.63002 -1.68633,-1.99459 -3.66878,-4.3982 -4.40549,-5.34132 -0.73665,-0.94312 -2.11048,-2.16427 -3.05295,-2.71357 -0.94242,-0.5493 -1.97705,-1.57009 -2.29916,-2.26846 -0.4057,-0.87959 -1.35129,-1.46012 -3.07753,-1.88953 -2.90096,-0.72162 -4.47482,-2.92898 -3.94705,-5.53576 0.33483,-1.6539 -0.30814,-2.88162 -5.37668,-10.26592 -1.49285,-2.17494 -3.27401,-4.3968 -3.95814,-4.93741 -0.77864,-0.61535 -1.24384,-1.5666 -1.24384,-2.5435 0,-1.88953 -1.10724,-4.47985 -8.17501,-19.12525 -0.85889,-1.77978 -1.72373,-4.02194 -1.92185,-4.98258 -0.19813,-0.96065 -0.58701,-1.88508 -0.86413,-2.05431 -0.27718,-0.16922 -0.51265,-1.20347 -0.52329,-2.29832 -0.0109,-1.09486 -0.37049,-2.59739 -0.7996,-3.33896 -0.48257,-0.83389 -0.78759,-2.91716 -0.7996,-5.46029 -0.0104,-2.26158 -0.38785,-5.14379 -0.83825,-6.4049 -1.04632,-2.92953 -1.04899,-8.24792 -0.006,-11.64463 0.44713,-1.45613 0.81565,-4.19689 0.81893,-6.09057 0.005,-1.89368 0.28624,-4.36738 0.62888,-5.49713 0.57373,-1.89176 0.4931,-2.25898 -1.02071,-4.64685 -2.55854,-4.03574 -4.31377,-7.69851 -5.35632,-11.17734 -0.84699,-2.82621 -0.92015,-4.8623 -0.63942,-17.79777 0.17438,-8.03356 0.5673,-15.33456 0.87314,-16.22445 0.3059,-0.88989 0.91933,-3.2282 1.36318,-5.19626 0.44392,-1.96805 1.74508,-5.47629 2.89157,-7.79609 2.14472,-4.33965 3.20659,-5.3899 9.22094,-9.12003 2.7303,-1.69335 2.785,-1.76357 4.40937,-5.66293 1.47068,-3.53033 4.01115,-7.06784 8.5154,-11.85745 2.18626,-2.32471 5.07729,-5.9473 6.42458,-8.05018 1.34724,-2.10289 4.48831,-6.91766 6.98009,-10.6995 2.49177,-3.78184 5.93125,-9.15588 7.6433,-11.94233 1.71205,-2.78645 3.48131,-5.62077 3.93172,-6.29849 2.40693,-3.62165 5.88174,-9.54627 7.41067,-12.63527 0.95432,-1.9281 2.25696,-3.96796 2.89468,-4.53304 0.63778,-0.56507 1.1596,-1.24839 1.1596,-1.51849 0,-0.2701 3.43949,-5.6073 7.64331,-11.86045 7.27751,-10.82529 8.34512,-12.87682 7.09735,-13.63863 -1.14349,-0.69815 -0.46695,-2.33433 1.53073,-3.70193 1.14213,-0.78192 2.24064,-1.42167 2.44106,-1.42167 0.20036,0 2.15263,-1.03146 4.33823,-2.29213 2.1856,-1.26068 4.6842,-2.65489 5.55242,-3.09826 0.86823,-0.44336 2.4517,-1.59617 3.51887,-2.5618 1.97618,-1.78814 2.39279,-1.92878 5.27563,-1.78103 0.90081,0.0462 2.57983,-0.30509 3.73118,-0.78058 2.14231,-0.88475 6.59426,-0.68218 7.22675,0.32883 0.16417,0.2624 1.57381,0.49481 3.1325,0.51647 2.5925,0.036 3.90709,0.19959 10.47733,1.30368 1.20109,0.20184 2.92083,0.68343 3.82165,1.0702 4.65013,1.99658 5.83042,2.44068 6.48638,2.44068 1.399,0 9.9405,6.1025 13.10576,9.36341 3.58247,3.69076 7.4324,9.18627 7.4324,10.60925 0,0.51095 0.36852,1.23113 0.81893,1.6004 0.4504,0.36928 0.81996,0.94506 0.82127,1.27952 0,0.33447 0.71907,1.6754 1.5951,2.97984 l 1.59281,2.37171 0.62517,-2.37171 c 1.58053,-5.99515 3.07605,-8.03464 5.89184,-8.03464 1.85416,0 5.5207,2.38445 7.35062,4.78028 3.25201,4.25767 6.57302,9.54127 7.30984,11.62964 0.42628,1.20826 1.25994,3.22566 1.85257,4.4831 0.59263,1.25745 1.07749,2.42038 1.07749,2.58429 0,0.16392 0.72819,1.83669 1.61825,3.71727 1.75616,3.71057 3.11907,7.20118 3.80664,9.74928 0.24011,0.88989 1.08316,3.04369 1.87343,4.78622 0.79031,1.74253 1.43688,3.46567 1.43688,3.8292 0,0.36352 0.68714,1.60749 1.52697,2.76435 0.83984,1.15687 1.86115,2.91321 2.26963,3.90298 0.43703,1.05897 1.66225,2.36933 2.97712,3.18401 1.22899,0.76143 3.36671,2.37859 4.75058,3.59368 2.68089,2.35394 7.38167,4.07641 11.24543,4.12057 1.139,0.013 3.0537,0.37342 4.2548,0.80087 2.84,1.01074 5.6715,0.99478 9.1785,-0.0517 4.5785,-1.36623 7.3587,-2.79576 8.3531,-4.29508 1.6121,-2.43043 3.4875,-8.9633 3.4875,-12.14837 0,-1.66889 0.3658,-4.22573 0.813,-5.68186 0.5346,-1.74094 0.815,-4.99016 0.8189,-9.48882 0,-3.76272 0.2653,-7.52452 0.5824,-8.35956 2.0717,-5.45657 9.7885,-12.57445 13.6324,-12.57445 0.6322,0 1.6561,-0.26784 2.2753,-0.59521 1.4077,-0.74424 6.638298,-1.67448 9.175498,-1.63181 5.9189,0.0996 18.523,1.08874 19.9272,1.5639 4.0543,1.48192 8.8459,2.18609 12.3705,3.89908 1.8156,0.88989 3.7306,1.61798 4.2557,1.61798 0.525,0 2.1153,0.60969 3.534,1.35488 1.4187,0.74518 2.7772,1.23418 3.0188,1.08666 0.5711,-0.34867 0.031,-12.23563 -0.5913,-13.01282 -1.0085,-1.25977 -1.1519,-5.33781 -0.2615,-7.44296 0.4822,-1.13992 0.879,-3.31709 0.8819,-4.83817 0.01,-2.28709 0.3764,-3.34365 2.1507,-6.10647 2.232,-3.47538 7.2498,-7.65792 10.9469,-9.12458 1.0509,-0.41693 3.1323,-1.40681 4.6252,-2.19974 2.561,-1.3602 3.1319,-1.4415 10.1001,-1.43818 4.6135,0.002 7.8333,0.24156 8.5782,0.6377 0.6948,0.36951 3.5428997,0.63308 6.8243997,0.63152 3.4439,-0.002 6.58620001,0.30199 8.0886,0.78154 1.3512,0.43132 4.2994,1.30559 6.5514,1.94282 2.2520003,0.63724 4.7088003,1.35036 5.4595003,1.58472 0.7507,0.23436 2.9618,0.83937 4.9136,1.34448 1.9517,0.50511 5.1455,1.60451 7.0973,2.44309 1.9518,0.83859 5.8665,2.40405 8.6993,3.47879 2.8669,1.08768 5.5001,2.44701 5.9389,3.06582 0.6255,0.88224 0.8848,0.96123 1.2559,0.38265 1.1696,5.30232 1.516,6.28107 1.516,6.28107 -0.5042,-0.96405 -0.8922,8.36062 -1.1368,8.36062 -0.2446,0 -0.4448,1.53213 -0.4448,3.40472 0,3.10016 0.1504,3.54642 1.6813,4.98877 4.16,3.91924 8.8005,12.80155 9.7587,18.67904 0.2972,1.8235 0.793,3.56491 1.1016,3.8698 0.3087,0.30489 0.5612,1.3673 0.5612,2.3609 0,0.99361 0.3366,2.46193 0.748,3.26293 0.4114,0.801 0.9178,2.60917 1.1253,4.01816 0.5134,3.48518 1.6207,3.37893 1.2802,-0.12282 -0.2517,-2.58718 0.3221,-5.6215 1.6662,-8.81117 0.3519,-0.83504 0.6398,-2.30336 0.6398,-3.26293 0,-0.95956 0.2218,-1.97523 0.493,-2.25703 0.6764,-0.70287 2.3101,-6.88108 2.7739,-10.4899 0.2096,-1.63146 0.6815,-3.69003 1.0486,-4.5746 0.7768,-1.87206 0.3647,-13.5177 -0.6243,-17.64427 -0.515,-2.14831 -0.4583,-2.85971 0.3724,-4.67962 1.04,-2.27813 3.2614,-4.66287 5.2761,-5.66388 1.8211,-0.90481 1.8238,-1.77138 0.01,-2.1304 48.992302,97.74149 -51.2633,-3.34052 23.5345,-8.31853 -1.0341,1.16358 -0.484,1.18343 2.7383,0.0988 2.0112,-0.67696 4.338002,-0.80041 11.698702,-0.62067 8.7694,0.21414 11.8558,0.67344 15.8221,2.35452 0.9463,0.40104 2.7469,0.72916 4.0016,0.72916 1.6071,0 3.742,0.71709 7.2254,2.42697 2.7193,1.33484 5.4691,2.42697 6.1106,2.42697 1.7046,0 5.07,2.96842 6.6351,5.85233 0.7483,1.37898 1.784,3.14492 2.3015,3.92432 1.7505,2.63656 2.8163,4.50197 5.1699,9.04859 1.2907,2.4932 2.7505,4.78471 3.2441,5.09225 0.9314,0.58038 1.1281,0.4485 7.9631,-5.3376 3.4472,-2.9182 5.2911,-4.01419 6.792,-4.03718 0.6862,-0.0105 1.8618,-0.36596 2.6125,-0.78988 0.7507,-0.42392 2.544,-0.77937 3.9853,-0.78988 1.4412,-0.0105 3.3737,-0.40398 4.2945,-0.87438 1.8178,-0.92861 6.0061,-0.84178 8.9176,0.18488 0.9008,0.31764 3.1119,1.00912 4.9136,1.5366 1.8016,0.52749 3.7603,1.27647 4.3526,1.66441 0.5923,0.38793 1.4012,0.70534 1.7976,0.70534 0.3964,0 2.0374,0.9609 3.6467,2.13533 1.6093,1.17443 4.3627,2.89526 6.1187,3.82406 1.756,0.92881 4.0525,2.47936 5.1035,3.44568 1.0509,0.96631 2.847,2.44056 3.9912,3.27611 1.417,1.03477 2.7323,2.82362 4.1248,5.61003 1.1244,2.24996 2.3039,4.57623 2.6211,5.16949 2.8437,5.31978 4.0035,8.5964 4.0035,11.31069 0,1.61189 0.271,3.51818 0.6021,4.23618 0.4418,0.95772 0.4373,1.60969 -0.016,2.44748 -0.4825,0.89067 -0.4348,1.49327 0.2168,2.73807 0.4595,0.87783 0.8496,2.39689 0.8668,3.37566 0.044,2.49741 2.7009,7.17286 4.0763,7.17286 -1.2911,-7.59807 1.0369,10.9052 2.7168,4.87967 l -0.3208,4.84107 c -0.1765,2.6626 -0.5098,5.26579 -0.7409,5.7849 -0.5081,1.14174 0.1401,1.19016 1.5755,0.11768 0.5829,-0.43551 1.4698,-0.79184 1.9711,-0.79184 2.2283,0 13.74217,-9.9676 16.87747,-14.61096 2.2042,-3.26442 2.1724,-3.2083 6.9994,-12.35537 1.8001,-3.41124 4.262,-7.90113 5.4708,-9.97754 4.1654,-7.15477 5.1994,-9.83001 6.0456,-15.64047 0.2159,-1.48314 0.6875,-3.22674 1.0479,-3.87466 0.3604,-0.64791 0.6553,-1.88331 0.6553,-2.74532 0,-3.00915 5.3561,-11.92922 9.3725,-15.60901 2.9896,-2.73904 8.6155,-3.41367 11.7185,-1.40521 1.5374,0.99515 5.1146,9.21978 5.1146,11.75956 0,1.18782 0.2182,1.82753 0.5535,1.62279 0.3045,-0.18588 0.5142,-1.59572 0.4661,-3.13296 -0.1546,-4.93844 0.6902,-14.58479 1.501,-17.1387 0.4327,-1.36319 1.271,-3.41676 1.8629,-4.56348 0.5918,-1.14672 1.076,-2.34838 1.076,-2.67036 0,-0.32197 1.0893,-2.22385 2.4208,-4.22639 1.8923,-2.84629 3.3048,-4.21684 6.4713,-6.27926 6.6273,-4.31648 12.9221,-7.54667 14.7644,-7.5764 0.6514,-0.0105 1.7984,-0.36596 2.5491,-0.78988 1.9502,-1.10132 13.5023,-1.08809 14.9815,0.0172 0.5829,0.43551 1.8528,0.79184 2.822,0.79184 0.9692,0 2.5806,0.40511 3.5808,0.90024 1.0002,0.49514 2.3081,1.14072 2.9065,1.43464 0.5984,0.29392 1.8267,0.71728 2.7297,0.94081 0.903,0.22353 2.9931,0.93701 4.6446,1.58551 1.6515,0.64852 3.5636,1.30605 4.2492,1.46121 1.8107,0.40977 10.817,9.08123 14.2933,13.76189 1.6406,2.20897 3.9123,4.67624 5.0482,5.48283 1.1728,0.83277 2.2074,2.09291 2.3942,2.91601 1.4438,6.36081 3.5054,10.34281 8.1031,15.65084 1.3698,1.58152 2.4907,3.11077 2.4907,3.39831 0,0.28755 0.8394,0.86931 1.8655,1.2928 1.4349,0.59229 2.1829,1.45488 3.2407,3.7375 0.8886,1.91749 2.6916,4.23095 5.0954,6.53812 6.5311,6.26869 18.3171,16.95291 22.8697,20.7319 4.1139,3.41476 12.2425,13.03401 12.2425,14.48745 0,0.34198 0.7572,2.01271 1.6827,3.71273 1.4883,2.73403 1.7008,3.68254 1.8397,8.21453 0.086,2.81798 0.4814,6.26031 0.8777,7.64962 0.6253,2.19194 1.0138,2.64544 2.9374,3.42894 3.6219,1.47531 5.4052,2.47759 6.9951,3.93147 2.338,2.13799 4.6947,7.83901 5.3884,13.03495 0.2178,1.63146 0.6242,3.98016 0.903,5.21933 0.3208,1.42552 0.308,3.20832 -0.035,4.85394 -0.6019,2.88917 -0.6435,8.88911 -0.098,14.11867 0.2316,2.22031 0.1472,3.63577 -0.2397,4.01799 -0.3285,0.32456 -0.5974,1.09977 -0.5974,1.72269 0,0.62292 -0.2159,1.36315 -0.48,1.64495 -0.264,0.2818 -0.7892,1.48315 -1.1671,2.66966 -0.3779,1.18652 -1.5131,3.68026 -2.5227,5.54163 -1.0096,1.86137 -1.8356,3.49958 -1.8356,3.64045 0,0.14088 1.2105,0.25614 2.6901,0.25614 2.2559,0 2.8728,0.22936 3.8217,1.42105 0.6223,0.78157 1.1315,2.18922 1.1315,3.12809 0,0.93888 0.2552,1.95911 0.567,2.26718 0.3357,0.33165 0.7038,5.39387 0.9023,12.41009 0.278,9.82459 0.1903,12.35139 -0.5131,14.78371 -0.4665,1.61356 -1.1358,4.63262 -1.4871,6.70903 -1.5997,9.45451 -1.6554,9.66018 -4.8205,17.79777 -2.453,6.3067 -6.3335,14.06349 -8.2293,16.44946 -2.4054,3.02734 -4.7235,6.51575 -6.5677,9.88297 -0.9442,1.72412 -2.2316,3.66421 -2.8608,4.3113 -1.8821,1.93557 -3.1922,4.32362 -3.1944,5.82289 -0.01,2.09755 -1.8309,4.01351 -5.3378,5.59476 -1.7195,0.77533 -3.6178,1.87896 -4.2183,2.45248 -0.6006,0.57346 -2.7503,2.39644 -4.7771,4.05104 -2.7852,2.27364 -3.6852,3.34329 -3.6852,4.37987 0,0.7543 -0.393,2.86275 -0.8733,4.68535 -1.2359,4.68933 -1.2381,19.21388 -0.01,22.03806 0.4821,1.10282 0.8766,3.25042 0.8766,4.77245 0,1.52198 0.3451,3.532 0.7669,4.46676 0.4217,0.9347 0.9054,2.6572 1.075,3.82776 2.4782,-6.25602 0.8127,14.00272 -2.0765,20.07988 -0.4005,1.23916 -1.2489,2.97552 -1.8853,3.8585 -0.6366,0.88304 -1.1573,1.81877 -1.1573,2.07948 0,0.98411 -6.9422,7.59582 -9.7081,9.24589 -2.6568,1.58503 -8.4942,3.84724 -15.0665,5.83897 -1.8707,0.56688 -3.821,0.70975 -6.5514,0.47995 -2.1383,-0.17992 -6.3167,-0.45816 -9.2854,-0.61823 -5.1976,-0.28029 -5.502,-0.36729 -8.2167,-2.34845 -4.9457,-3.60928 -11.2262,-5.65991 -11.2265,-3.66558 -1e-4,0.37078 -0.6758,1.9283 -1.5014,3.46118 -1.9227,3.56937 -21.8219,22.7119 -26.7515,25.73418 -1.8767,1.1506 -3.4121,2.30292 -3.4121,2.56072 0,0.86033 2.669,0.48237 5.0332,-0.71272 5.02,-2.53764 7.9145,-5.18455 13.452,-12.30177 4.472,-5.74771 4.8396,-6.12152 7.1733,-7.29541 4.9091,-2.46915 9.8503,-3.47467 17.1161,-3.48303 7.0405,-0.008 8.1564,0.21298 12.4506,2.46715 0.797,0.41841 1.9026,0.77102 2.4567,0.78364 3.9763,0.0903 12.7039,4.72531 16.2067,8.60679 3.5102,3.88968 8.6269,11.28498 10.2613,14.83099 1.4415,3.12745 1.3907,9.83878 -0.096,12.71802 -2.2315,4.32109 -7.8099,8.51025 -11.4423,8.59266 -0.7506,0.0173 -1.979,0.3778 -2.7297,0.80171 -0.7507,0.42391 -2.409,0.77938 -3.6852,0.7899 -3.0424,0.0248 -3.8708,0.90429 -6.9823,7.41142 -1.3891,2.90503 -2.9172,6.00993 -3.3957,6.89982 -1.5164,2.81998 -1.6837,3.16725 -3.1631,6.56754 -1.4333,3.29432 -1.4282,4.48866 0.019,4.48866 1.2095,0 4.1044,3.21471 4.1044,4.55784 0,0.68139 -0.5922,2.30093 -1.3159,3.59898 -2.5024,4.4877 -3.8914,18.7216 -2.4145,24.7421 1.1222,4.5744 0.9092,12.7647 -0.3947,15.1774 -4.1393,7.659 -6.5263,10.7123 -9.8342,12.5787 -1.64,0.9254 -1.7357,0.9152 -4.5246,-0.4808 -1.567,-0.7845 -3.0896,-1.2795 -3.3834,-1.1 -0.8274,0.5051 -0.1792,1.1344 2.4764,2.4044 2.8685,1.3717 5.1962,3.896 5.1962,5.6347 0,0.6781 -0.737,2.149 -1.6378,3.2688 -0.9008,1.1198 -1.6379,2.2331 -1.6379,2.4741 0,1.1923 -3.6499,5.5441 -5.9081,7.0442 -1.4048,0.9332 -3.1683,2.2195 -3.919,2.8586 -0.7507,0.639 -2.8389,1.7312 -4.6406,2.427 -7.868,3.0386 -12.0871,5.4195 -15.5973,8.8018 -4.7202,4.5483 -7.3978,6.5517 -11.3355,8.4817 -2.7327,1.3394 -3.9744,1.6205 -7.1584,1.6205 -3.6257,0 -3.8533,0.071 -3.8701,1.2135 -0.021,1.4649 -2.5586,8.644 -3.8163,10.7985 -0.3068,0.5257 -1.053,2.2631 -1.6582,3.861 -0.6052,1.5978 -1.4596,3.1997 -1.8987,3.5596 -0.439,0.36 -0.7983,1.0726 -0.7983,1.5836 0,0.511 -0.4913,1.3683 -1.0919,1.9052 -0.6005,0.5369 -1.0919,1.2135 -1.0919,1.5036 -9.9685,9.1761 -3.8288,5.2921 -14.4762,7.0692 z m -566.90044,-109.8618 c -0.43223,-0.4269 -0.59716,-0.287 -0.59716,0.5067 0,1.4259 0.76351,2.1827 1.00662,0.9979 0.10324,-0.5031 -0.081,-1.1801 -0.40946,-1.5046 z m 116.78215,-22.99404 c 0,-0.2791 -0.21057,-0.63603 -0.46793,-0.79319 -0.25736,-0.1571 -0.61272,-1.67196 -0.78978,-3.36637 -0.2775,-2.65607 -0.56811,-3.27155 -2.1084,-4.46524 -2.39601,-1.8569 -4.16129,-2.7291 -5.56798,-2.75116 -0.64128,-0.0102 -2.1487,-0.48723 -3.34979,-1.06037 -1.20109,-0.57314 -2.45776,-1.05029 -2.79259,-1.06037 -0.33489,-0.0103 -1.26912,-0.53134 -2.07609,-1.15842 -0.80697,-0.62707 -1.6112,-0.99797 -1.78711,-0.8242 -0.4354,0.43017 9.81968,10.34423 13.46838,13.02053 3.7985,2.78621 5.47129,3.53798 5.47129,2.45879 z m 430.48149,-6.50374 c 0.9776,0 2.0832,-0.36404 2.457,-0.80899 0.3738,-0.44494 1.0465,-0.80899 1.4948,-0.80899 0.4483,0 2.4781,-1.09213 4.5106,-2.42697 2.0326,-1.33483 3.8829,-2.42697 4.1119,-2.42697 1.3416,0 5.4003,-4.23997 6.6478,-6.9448 0.7693,-1.66803 1.6112,-3.45417 1.871,-3.96922 1.0233,-2.02965 0.3751,-2.15672 -1.5752,-0.30882 -2.5151,2.38317 -5.6289,3.95536 -8.8717,4.47927 -1.3512,0.21832 -2.9128,0.63376 -3.4701,0.92322 -0.7395,0.3841 -2.0673,0.15947 -4.9135,-0.83127 -2.1452,-0.7467 -4.786,-1.5175 -5.8687,-1.71301 -1.9414,-0.35051 -1.9731,-0.32699 -2.3142,1.71247 -0.1903,1.13733 -0.3486,2.78789 -0.3519,3.66785 -0.01,0.87997 -0.4039,2.62906 -0.8901,3.88682 -1.0251,2.65144 -0.6624,5.80386 0.758,6.58906 0.6196,0.34258 1.5292,0.25899 2.7745,-0.25499 1.0189,-0.42057 2.6523,-0.76466 3.6298,-0.76466 z m -457.312,-19.74442 c -3.0809,-7.51271 -4.572,-17.59661 -3.21963,-21.77412 0.68893,-2.12813 1.74043,-8.73304 1.71871,-10.79613 -0.0158,-1.51572 -0.51505,-5.56461 -0.91687,-7.4378 -0.40968,-1.90981 -1.14311,-0.95844 -1.54007,1.99772 -0.19747,1.47069 -0.71973,3.35704 -1.16048,4.19186 -0.4408,0.83483 -0.80009,1.88193 -0.79845,2.32687 0.007,1.72795 -5.25766,11.0666 -7.62627,13.52912 -2.81852,2.93037 -9.07724,6.42596 -11.50541,6.42596 -0.89328,0 -1.62415,0.2386 -1.62415,0.53027 0,0.81309 5.22507,3.24502 6.97212,3.24502 1.0652,0 2.13641,0.60555 3.43031,1.9392 1.03479,1.06657 3.35552,2.66983 5.15716,3.56279 1.80163,0.89297 5.36396,2.76432 7.91627,4.15853 2.55232,1.39422 4.70839,2.49471 4.79132,2.44563 0.0829,-0.0491 -0.63467,-2.0043 -1.59456,-4.34492 z m -20.47876,-10.75077 c -0.17781,-0.45773 -0.18071,-0.97311 -0.007,-1.14532 0.55092,-0.54418 2.00184,0.29049 2.00184,1.15163 0,1.07655 -1.57671,1.07153 -1.9954,-0.006 z m 510.94376,-5.4904 c 2.0344,-1.99427 3.6989,-3.78656 3.6989,-3.98287 0,-0.3078 -2.159,-1.10071 -6.2823,-2.30719 -1.0437,-0.30542 -1.0863,-0.11563 -0.8971,3.99895 0.1327,2.88739 -0.024,4.58438 -0.4725,5.11831 -0.3691,0.43934 -0.4629,0.7988 -0.2085,0.7988 0.2544,0 2.1271,-1.63168 4.1615,-3.626 z m -8.3121,-26.81413 c 0,-1.43887 -0.8119,-2.26382 -1.3623,-1.38412 -0.4437,0.70916 0.1854,2.70062 0.8532,2.70062 0.28,0 0.5091,-0.5924 0.5091,-1.3165 z m -1.0919,-6.60054 c 0,-1.3514 -2.2549,-7.73988 -3.4399,-9.7459 -0.8881,-1.50322 -1.3388,-1.75282 -3.1654,-1.75282 -1.1714,0 -2.1299,0.22803 -2.1299,0.5067 0,1.47387 5.0805,10.10682 6.4175,10.9047 1.9543,1.16629 2.3177,1.17999 2.3177,0.0873 z m -464.45772,-20.35052 c 2.91685,-1.85345 5.31368,-4.19747 5.31368,-5.19663 0,-0.90304 -2.32968,-3.74934 -3.06884,-3.74934 -1.24313,0 -7.85017,9.27782 -7.85017,11.02346 0,0.76638 2.71114,-0.23844 5.60533,-2.07749 z m 455.72252,-0.21578 c 0,-0.24114 -0.6142,-1.69613 -1.3648,-3.23332 -0.7507,-1.53724 -1.3649,-2.91458 -1.3649,-3.06084 0,-0.14621 -0.9088,-1.59889 -2.0195,-3.22809 -1.8713,-2.74479 -3.4659,-3.9196 -6.5792,-4.84725 -1.7687,-0.52697 -1.588,1.06647 0.4255,3.75167 0.8898,1.18652 2.0113,3.00674 2.4924,4.04495 0.481,1.0382 1.4213,2.61573 2.0895,3.50562 0.6682,0.88989 1.3734,2.0427 1.567,2.5618 0.2557,0.68527 0.9551,0.94382 2.5531,0.94382 1.2105,0 2.2009,-0.19729 2.2009,-0.43836 z M 60.494288,623.48689 c 0.1846,-0.29503 1.0661,-0.53642 1.9588,-0.53642 0.8927,0 2.5052,-0.36405 3.5831,-0.80899 1.078,-0.44494 3.0093,-0.80899 4.2917,-0.80899 3.9658,0 3.7442,-1.28018 -0.9802,-5.66293 -2.2382,-2.07641 -2.2865,-4.16421 -2.5515,-4.63957 -0.2651,-0.47535 -1.152,-1.64022 -1.971,-2.5886 -2.847403,-3.35019 -1.369542,-2.76214 -3.2561,-5.09285 0.7455,-0.47569 0.4327,-3.29896 -0.4918,-4.43822 -0.2585,-0.31869 -2.6323,-2.38161 -2.8305,-4.58427 -0.3598,-3.9974 -0.9371,-5.89248 -1.7953,-5.89248 -0.2497,0 -0.9781,1.15281 -1.6187,2.5618 -1.4379,3.16293 -5.1643,9.69492 -6.0037,10.52415 -0.3412,0.33712 -0.6204,0.97585 -0.6204,1.41939 -2.70357,4.05714 -4.769915,7.30323 -6.1428,10.0622 -2.1863,4.3994 -3.0875,8.76814 -1.9549,9.47735 0.4,0.25052 3.6755,0.46558 7.2787,0.47789 5.1611,0.0176 7.0149,0.23234 8.7352,1.01163 2.1372,0.96808 3.5609,0.81132 4.3694,-0.48109 z m -0.2976,-62.16782 c 0.013,-0.22981 -0.5913,-0.64853 -1.342,-0.93048 -1.915,-0.71926 -1.7667,-1.79087 0.1891,-1.3665 1.3235,0.28715 1.769,0.0588 3.0027,-1.53914 1.6503,-2.13739 1.8401,-4.2936 0.6298,-7.15508 -0.4504,-1.06491 -0.8204,-2.45262 -0.8223,-3.08381 0,-0.63119 -0.3824,-1.86579 -0.8457,-2.74354 -0.6297,-1.19289 0.954695,-3.82674 -0.9178,-9.16855 -1.655174,-4.72184 0.059,-7.80789 1.0027,-9.46027 1.8033,-3.15763 3.0761,-5.00859 5.2435,-7.62542 2.4324,-2.93677 2.5174,-3.43397 0.7452,-4.35737 -2.0341,-1.05991 -8.5404,-7.47165 -8.1748,-8.05604 0.4987,-0.79711 -0.2632,-3.15272 -1.0182,-3.14806 -0.3697,0.002 -1.2593,1.03375 -1.9771,2.29214 -0.7178,1.25839 -2.2699,3.38012 -3.4494,4.71495 -1.1794,1.33484 -3.3465,3.9719 -4.8158,5.86015 l -2.6714,3.43318 1.0862,1.96009 c 0.5974,1.07804 1.5678,2.68817 2.1567,3.57806 0.5887,0.88989 1.2116,1.98203 1.3842,2.42697 0.1726,0.44495 0.7281,1.64012 1.2344,2.65594 0.7125,1.42936 0.8868,3.03629 0.7708,7.10726 -0.1735,6.09256 -1.1703,8.89898 -4.1846,11.78083 -1.0692,1.02223 -1.944,2.26759 -1.944,2.76745 0,0.49986 0.8884,1.57825 1.9743,2.39641 2.9446,2.21869 7.8248,7.25289 9.3657,9.66128 l 1.3577,2.12193 0.9986,-1.85227 c 0.5492,-1.01875 1.0089,-2.0403 1.0215,-2.27011 z M -278.26954,523.71439 c 0.66223,-0.42276 0.58383,-0.52439 -0.40947,-0.53107 -0.67561,-0.004 -1.22839,0.23444 -1.22839,0.53107 0,0.67573 0.57937,0.67573 1.63786,0 z M 77.297988,404.31114 c 0.9663,-0.41329 2.2435,-1.11844 2.8384,-1.56701 1.0284,-0.77556 1.0016,-0.80129 -0.546,-0.52452 -0.8951,0.16009 -1.9703,0.56187 -2.3894,0.89285 -0.419,0.33098 -1.4018,0.88544 -2.1838,1.23214 -1.0397,0.46092 -1.1603,0.64213 -0.4489,0.67416 0.5351,0.0241 1.7635,-0.29434 2.7297,-0.70762 z m 13.7405,-5.79013 c 0.3067,-0.27774 -0.056,-0.46969 -0.8886,-0.46969 -0.774,0 -1.7259,0.3793 -2.1154,0.8429 -0.6231,0.74166 -0.5163,0.79808 0.8886,0.46969 0.8782,-0.20526 1.8301,-0.58457 2.1154,-0.8429 z M -362.27465,621.16689 c -523.45304,1266.65471 -261.72652,633.32741 0,0 z m 198.10533,-151.83167 c -655.52326,1367.87588 -327.76163,683.93798 0,0 z m -41.82176,-57.54578 c -627.64209,1406.23976 -313.82104,703.11986 0,0 z"
       id="path3226"
       inkscape:connector-curvature="0"
       sodipodi:nodetypes="cscscccscccscssccccccccsscssscscccsscsccscsssccsccscsccccssccssccccsccsccccccccscsscccccccscscccccscccscscsssccccsccsccccssccccsccccccsscssccsccccssssccccccsssccccssccsscssccssccsscscssscccccscssssccsssscsssscssscsscscsccsssssccsccsscsssccssscsccscscccsssccssccccccsccccsscsscccsscccsscccscccccsccsscsssccccscsscscsssscsscsccsccccccsssccssscsccccscscccssssssscccscssssccccssccscscsssscscsccsscscsccsccsccccscccssccssssccccssccscscssscssccccssssscscsccscsccccsccsccscscscssssscsscccscccccccssscsccccsssssscsccsccsscccssssssccsssccsssssscsccccscsscscsccccccscccccscccscccccscscccscscscsccsscccccscssccccccccsscccccccc" />
  </g>
  <g
     inkscape:groupmode="layer"
     id="layer1"
     inkscape:label="Layer" />
</svg>
