<?xml version="1.0" encoding="UTF-8" standalone="no"?>
<!-- Created with Inkscape (http://www.inkscape.org/) -->

<svg
   xmlns:dc="http://purl.org/dc/elements/1.1/"
   xmlns:cc="http://creativecommons.org/ns#"
   xmlns:rdf="http://www.w3.org/1999/02/22-rdf-syntax-ns#"
   xmlns:svg="http://www.w3.org/2000/svg"
   xmlns="http://www.w3.org/2000/svg"
   version="1.1"
   width="744.09448"
   height="1052.3622"
   id="svg2">
  <defs
     id="defs4" />
  <metadata
     id="metadata7">
    <rdf:RDF>
      <cc:Work
         rdf:about="">
        <dc:format>image/svg+xml</dc:format>
        <dc:type
           rdf:resource="http://purl.org/dc/dcmitype/StillImage" />
        <dc:title></dc:title>
      </cc:Work>
    </rdf:RDF>
  </metadata>
  <g
     id="layer1">
    <path
       d="m 371.02974,1041.4872 c -1.20388,-1.2039 -24.14671,-2.6907 -53.74402,-3.4829 -38.47387,-1.0298 -56.6782,-2.1949 -60.5,-3.8723 -1.65,-0.7242 -6.15,-1.6858 -10,-2.1369 -12.2685,-1.4374 -17.18898,-2.4848 -19.84285,-4.2237 -1.42273,-0.9322 -3.72762,-1.6949 -5.12197,-1.6949 -2.47213,0 -2.53518,-0.1741 -2.53518,-7 l 0,-7 6.60566,0 c 6.16922,0 15.59891,1.7899 21.40952,4.0638 3.62347,1.418 20.69771,5.0594 25.98482,5.5418 2.475,0.2257 10.575,1.092 18,1.9249 19.21814,2.1559 29.62199,3.3217 36.4198,4.0811 3.25589,0.3637 14.95589,0.7282 26,0.81 11.04411,0.082 32.58061,0.7645 47.8589,1.5172 20.03443,0.9869 28.39796,1.0679 30,0.2903 3.01455,-1.4632 18.55457,-3.2291 28.41604,-3.2291 6.14442,0 10.40383,-0.7217 17.92702,-3.0375 11.48915,-3.5366 13.87824,-3.5321 13.87824,0.026 0,2.1214 -0.95861,2.8832 -6.5,5.1652 -3.575,1.4722 -9.875,3.4119 -14,4.3103 -4.125,0.8985 -10.00452,2.2867 -13.0656,3.0849 -3.06109,0.7982 -8.46109,1.4584 -12,1.467 -3.53892,0.01 -10.66521,0.9086 -15.83619,2 -7.91988,1.6715 -13.29209,1.9843 -34.08333,1.9843 -13.57485,0 -24.94674,-0.2652 -25.27086,-0.5893 z m 24.5543,-21.737 c -1.05418,-1.7057 -0.5441,-7.0003 2.1362,-22.17373 3.26445,-18.4804 4.58688,-31.5496 4.57513,-45.2148 -0.009,-10.60597 0.1125,-11.28125 2.24035,-12.43811 2.36268,-1.28453 18.35577,-2.98277 30.25,-3.21211 6.47001,-0.12476 7.0234,0.0293 7.309,2.03451 0.16995,1.19322 -1.49274,6.59322 -3.69487,12 -2.20212,5.40681 -4.64714,11.63051 -5.43336,13.83051 -7.39013,20.6789 -14.24649,37.31673 -17.96232,43.58793 -1.49515,2.5233 -2.71845,6.0249 -2.71845,7.7813 0,3.6947 -0.262,3.8202 -9.26158,4.4381 -4.31236,0.2961 -7.00735,0.067 -7.4401,-0.6336 z m 27.04231,-0.2284 c -0.40376,-1.0522 0.077,-3.0443 1.17361,-4.8637 2.86937,-4.7604 7.48576,-14.4254 7.48576,-15.67253 0,-0.6153 1.05882,-3.2267 2.35292,-5.8032 1.29411,-2.5765 2.92552,-6.4669 3.62536,-8.6452 1.66702,-5.189 7.73338,-21.083 9.60864,-25.175 0.81017,-1.7679 3.03637,-8.06788 4.9471,-14.00001 1.91073,-5.93213 4.09528,-11.91069 4.85455,-13.28569 0.75928,-1.375 1.69889,-4.075 2.08804,-6 0.92018,-4.55189 10.93806,-35.63587 14.15636,-43.92505 1.372,-3.53377 2.96586,-10.05877 3.54192,-14.5 0.57607,-4.44122 1.47864,-10.77495 2.00573,-14.07495 0.52709,-3.3 1.34352,-12.075 1.81429,-19.5 0.47078,-7.425 1.34492,-15.975 1.94255,-19 0.59762,-3.025 1.42622,-8.425 1.84132,-12 0.41511,-3.575 1.53469,-7.61263 2.48798,-8.97251 1.06136,-1.51405 1.73324,-4.33693 1.73324,-7.28211 0,-2.64529 0.73714,-6.48266 1.63809,-8.5275 2.49318,-5.65862 3.43956,-12.17179 4.39074,-30.21788 0.47834,-9.075 1.31496,-19.875 1.85917,-24 2.17727,-16.50336 3.05423,-21.71785 4.12697,-24.53939 2.55231,-6.71307 4.93547,-27.82306 5.6035,-49.63578 0.49479,-16.15572 0.37056,-18.06119 -1.44504,-22.16566 -2.33238,-5.27275 -5.48048,-7.6011 -11.89833,-8.80009 -2.5656,-0.4793 -5.02016,-1.43118 -5.4546,-2.11527 -0.43443,-0.6841 -0.79677,-13.10812 -0.80519,-27.60894 l -0.0153,-26.36513 -3.75,-3.50096 c -4.79354,-4.47521 -16.01515,-11.77012 -19.25541,-12.51751 -1.37203,-0.31646 -6.43195,-2.2979 -11.24428,-4.40319 -10.30253,-4.50714 -9.33808,-1.99084 -10.73451,-28.00686 -0.53607,-9.98733 -1.42993,-20.11233 -1.98635,-22.5 -0.55642,-2.38767 -2.32619,-9.96622 -3.93283,-16.84122 -1.60664,-6.875 -3.21576,-14.975 -3.57583,-18 -0.36007,-3.025 -1.26031,-7.75 -2.00052,-10.5 -0.74022,-2.75 -1.86944,-13.775 -2.50939,-24.5 -0.63995,-10.725 -1.63612,-20.625 -2.21372,-22 -0.5776,-1.375 -1.39639,-5.2 -1.81952,-8.5 -0.42314,-3.3 -1.71621,-10.43101 -2.87349,-15.84668 -1.15728,-5.41567 -2.10415,-12.97319 -2.10415,-16.79448 0,-3.8213 -0.65744,-9.74029 -1.46097,-13.15332 -0.80353,-3.41304 -2.39909,-17.21094 -3.5457,-30.662 -1.1466,-13.45107 -2.72767,-27.85107 -3.51349,-32 -0.78582,-4.14894 -2.34025,-12.33383 -3.4543,-18.18865 -1.53962,-8.09142 -2.02554,-14.74362 -2.02554,-27.72967 l 0,-17.08455 3.75,-1.90184 c 2.86226,-1.45162 6.4724,-1.98907 15.25,-2.27032 l 11.5,-0.36849 0.62913,5.5 c 0.34602,3.025 1.33877,7.3 2.20611,9.5 0.86734,2.2 1.59673,5.54791 1.62087,7.4398 0.0579,4.53574 1.92335,14.55354 3.64242,19.5602 0.75538,2.2 1.66865,6.25 2.02949,9 0.36083,2.75 1.49214,6.66957 2.51402,8.71016 1.02188,2.04059 1.85796,4.35395 1.85796,5.1408 0,0.78685 0.89012,3.39227 1.97804,5.78984 1.08792,2.39756 1.98792,6.06115 2,8.14132 0.0121,2.08016 0.73494,5.45516 1.60636,7.5 1.6357,3.83828 3.05071,10.93428 4.43045,22.21788 0.96784,7.91504 3.2088,17.39812 7.08933,30 1.60895,5.225 2.91872,10.08043 2.91059,10.78984 -0.008,0.70941 0.88523,3.05398 1.98523,5.21016 1.1,2.15618 2,5.81692 2,8.13498 0,2.31806 1.17778,7.62349 2.61728,11.78984 1.43951,4.16635 3.25309,10.05018 4.03019,13.07518 0.7771,3.025 2.12023,7.01475 2.98473,8.8661 0.8645,1.85136 1.92484,5.67636 2.35631,8.5 0.94021,6.15297 3.55102,17.42187 5.47558,23.6339 0.76679,2.475 1.71241,6.3 2.10138,8.5 0.38898,2.2 1.77088,6.12254 3.07088,8.71676 1.30001,2.59421 2.36365,5.89379 2.36365,7.33238 0,1.4386 1.3168,5.61606 2.92622,9.28325 3.8737,8.82652 8.13328,27.79879 10.36536,46.16761 0.50125,4.125 1.30044,39.675 1.77598,79 0.47553,39.325 1.32799,79.6 1.89434,89.5 0.56635,9.9 1.43215,40.725 1.924,68.5 0.54446,30.74551 1.34613,52.65148 2.04939,56 1.48328,7.06255 3.05553,30.32443 3.68457,54.51426 0.44583,17.14467 0.22718,20.78273 -2.22379,37 -2.18588,14.46331 -2.83357,23.01034 -3.30715,43.64164 l -0.58892,25.6558 -4.77036,9.3442 c -2.6237,5.1392 -4.7612,10.5265 -4.75,11.9717 0.0319,4.12133 -0.25195,4.26663 -24.47964,12.52653 -11.50745,3.9232 -14.54996,4.5416 -26.5,5.3859 -7.425,0.5245 -15.3,1.3707 -17.5,1.8804 -2.2,0.5096 -6.58199,1.2372 -9.73776,1.6168 -4.96363,0.5971 -5.83002,0.4497 -6.42161,-1.0919 z m -45.75723,-0.1953 c -0.41247,-0.4125 -8.45484,-0.975 -17.87195,-1.25 l -17.12201,-0.5 -1.87791,-5 c -1.03285,-2.75 -2.35636,-6.8 -2.94113,-9 -0.58477,-2.2 -1.46787,-4.52093 -1.96244,-5.15743 -2.77424,-3.5709 -4.19904,-22.7525 -3.10805,-41.8426 l 0.80009,-14 24.5,-0.65293 c 13.475,-0.3591 26.6375,-0.96692 29.25,-1.35069 3.65742,-0.53727 4.76042,-0.38708 4.79529,0.65293 0.40014,11.93289 -0.45405,34.85279 -1.56736,42.05569 -3.14195,20.32793 -5.57558,32.29513 -7.01392,34.49033 -1.48256,2.2626 -4.40117,3.0343 -5.88061,1.5547 z m -61.5834,-3.25 c -1.375,-0.4404 -7.9,-0.8524 -14.5,-0.9156 -6.6,-0.063 -12.53011,-0.4522 -13.17802,-0.8642 -1.33007,-0.846 -6.32198,-15.04833 -6.32198,-17.98663 0,-2.8223 -3.43995,-15.4605 -7.00434,-25.7336 -6.23427,-17.968 -8.08213,-24.96765 -7.78785,-29.5 l 0.29219,-4.5 5,0.19257 c 24.91792,0.95969 45.52301,2.2631 48,3.03632 l 3,0.93647 -0.34174,19.91734 c -0.36653,21.3614 0.3641,27.9734 4.42914,40.08293 1.32693,3.9529 2.4126,9.2452 2.4126,11.7607 l 0,4.5737 -5.75,-0.1 c -3.1625,-0.055 -6.875,-0.4599 -8.25,-0.9003 z m -58.5,-5.1363 c -2.2,-0.5112 -7.15,-1.7907 -11,-2.8431 -15.33762,-4.1929 -19.33667,-5.0206 -24.25659,-5.0206 -2.81896,0 -5.41318,-0.4657 -5.76494,-1.0348 -0.35176,-0.5692 -1.47725,-3.83173 -2.50109,-7.25003 -3.23871,-10.8132 -8.7897,-24.9701 -10.92155,-27.8536 -1.1307,-1.5293 -2.05583,-3.1945 -2.05583,-3.7003 0,-0.5058 -1.2375,-3.5615 -2.75,-6.7905 -2.73867,-5.84662 -2.75325,-5.99435 -3.54029,-35.8708 -0.43466,-16.5 -1.19195,-57.9 -1.68285,-92 -0.8463,-58.78658 -1.49628,-75.40841 -4.08641,-104.5 -0.6277,-7.05022 -1.30185,-43.62883 -1.54627,-83.89923 -0.38655,-63.68696 -0.25752,-72.05822 1.19447,-77.5 0.89531,-3.35543 2.23168,-9.92577 2.96973,-14.60077 0.73804,-4.675 2.26433,-11.15795 3.39176,-14.40655 1.12742,-3.2486 2.04986,-7.49165 2.04986,-9.429 0,-3.67269 1.1985,-8.22149 3.73199,-14.16445 0.82063,-1.925 2.13625,-5.975 2.9236,-9 0.78734,-3.025 2.69788,-8.875 4.24563,-13 6.50716,-17.34258 6.36845,-16.83371 8.94798,-32.82601 0.56121,-3.4793 1.72473,-7.40097 2.58559,-8.71481 1.02194,-1.55968 1.56521,-4.68569 1.56521,-9.00638 0,-5.16725 0.65749,-8.1156 3,-13.4528 1.65,-3.75937 3,-7.53064 3,-8.38059 0,-0.84995 0.9,-3.82869 2,-6.61941 1.1,-2.79072 2,-6.62328 2,-8.51678 0,-1.89351 0.74837,-5.3131 1.66304,-7.59908 l 1.66303,-4.15634 2.44705,4.8861 c 3.15502,6.29975 8.48546,14.41451 10.90133,16.5956 1.04144,0.94022 4.47856,2.85272 7.63805,4.25 4.84542,2.14287 7.24071,2.5405 15.30391,2.5405 l 9.55939,0 -0.70326,4.25 c -0.96431,5.82769 -1.08262,5.93102 -5.95452,5.20043 -6.34378,-0.95131 -11.23731,1.66074 -13.74902,7.33888 -1.63795,3.70286 -1.93966,6.49945 -1.83105,16.97251 0.0715,6.89655 0.37511,12.93571 0.67465,13.42037 0.29954,0.48466 1.14095,4.85002 1.86982,9.7008 1.18478,7.88505 3.16312,13.27097 6.70965,18.26667 0.93588,1.3183 0.64764,2.82479 -1.43497,7.5 -1.43335,3.21769 -2.91588,7.54175 -3.29452,9.60904 -0.37863,2.06728 -1.47975,4.76728 -2.44693,6 -0.96718,1.23271 -3.01328,5.38138 -4.5469,9.21925 -2.4071,6.02376 -2.80218,8.44471 -2.8892,17.70435 l -0.10081,10.72639 -3.98937,3.01784 c -2.19415,1.65981 -4.66437,3.03228 -5.48937,3.04993 -0.825,0.0177 -3.525,1.37825 -6,3.02354 -3.5623,2.36809 -5.59398,2.99233 -9.75,2.99572 -7.68073,0.006 -9.25,1.92995 -9.25,11.33912 0,4.42965 0.74703,9.67773 1.88606,13.25 1.03734,3.25334 2.16038,7.71516 2.49565,9.91516 0.33527,2.2 1.0635,6.25 1.61829,9 2.50489,12.41633 2.55258,11.89841 -1.22112,13.26299 -1.88148,0.68036 -5.07643,1.23701 -7.09988,1.23701 -2.36545,0 -4.40479,0.72579 -5.71179,2.03279 -1.95318,1.95318 -2.02105,3.0204 -1.73282,27.25 0.34838,29.28558 1.11558,34.34722 10.41557,68.71721 1.41381,5.225 2.92379,13.1 3.35552,17.5 0.43173,4.4 1.27325,9.24348 1.87005,10.76329 1.69488,4.31623 3.35387,14.30686 4.19069,25.23671 0.42109,5.5 1.2449,12.475 1.83068,15.5 0.58578,3.025 1.46988,9.1 1.96466,13.5 0.49478,4.4 1.40596,9.2737 2.02485,10.83044 0.61889,1.55675 1.52664,7.40675 2.01722,13 0.49058,5.59326 1.59482,11.96956 2.45388,14.16956 2.3749,6.082 5.64249,19.89552 5.64249,23.85327 0,1.93602 0.89685,7.26104 1.99299,11.83338 1.09615,4.57234 1.99615,11.11939 2,14.549 0.008,6.89482 1.2508,13.19531 4.09669,20.76435 1.03397,2.75 2.33174,7.3973 2.88392,10.32734 0.55218,2.93004 1.34651,5.85504 1.76518,6.5 0.41867,0.64496 1.00947,5.44766 1.31288,10.67266 0.43495,7.49013 1.34247,11.72143 4.28956,20 2.05584,5.775 4.20513,11.85 4.77619,13.5 2.41977,6.9916 8.88259,33.57503 8.88259,36.53673 0,1.78 -0.67673,1.9537 -7.25,1.8599 -3.9875,-0.057 -9.05,-0.5216 -11.25,-1.0329 z m 62.11824,-81.57882 c -0.4238,-0.42381 -9.17378,-1.06175 -19.4444,-1.41765 -10.27061,-0.35589 -21.43192,-1.18512 -24.8029,-1.84272 l -6.12906,-1.19563 -3.26085,-9.66446 c -4.59252,-13.61122 -5.90452,-19.66366 -5.94541,-27.42711 -0.0196,-3.71946 -0.93562,-10.01042 -2.03562,-13.9799 -1.1,-3.96948 -2,-8.95131 -2,-11.07073 0,-4.0898 -2.89308,-16.41745 -6.07948,-25.90516 -1.05629,-3.14515 -1.92052,-8.32159 -1.92052,-11.50319 0,-3.1816 -0.9,-8.93186 -2,-12.77836 -1.1,-3.8465 -2.00885,-9.02007 -2.01967,-11.49682 -0.0108,-2.47675 -0.73469,-8.10318 -1.60858,-12.50318 -0.8739,-4.4 -1.96338,-12.95 -2.42108,-19 -0.83458,-11.03203 -1.33283,-13.90186 -4.33343,-24.9601 -0.88948,-3.27805 -1.61724,-7.85763 -1.61724,-10.17685 0,-2.31921 -1.62996,-10.21216 -3.62213,-17.5399 -8.0474,-29.60044 -9.82907,-40.47906 -10.16763,-62.08198 l -0.294,-18.75883 2.79188,-1.10429 c 1.53554,-0.60737 4.81688,-1.33314 7.29188,-1.61284 9.49202,-1.07269 12.06088,-7.33833 8.12646,-19.82104 -2.08304,-6.6088 -4.12619,-16.76001 -4.12696,-20.50437 -2.8e-4,-1.34189 -0.92331,-4.86774 -2.05119,-7.83523 -1.12787,-2.96748 -1.8418,-5.93975 -1.5865,-6.60504 0.25529,-0.66528 2.05499,-1.46776 3.99933,-1.78328 1.94434,-0.31553 5.23795,-1.73076 7.31914,-3.14497 2.0812,-1.4142 4.5557,-2.57128 5.4989,-2.57128 1.62784,0 11.64479,-7.05985 18.48757,-13.02986 5.25285,-4.58288 23.16681,-12.70628 30.83325,-13.98189 2.75,-0.45757 6.8,-1.37005 9,-2.02773 4.56667,-1.36519 14.69093,-2.56937 32,-3.80611 7.22041,-0.51589 13.6552,-1.54221 16.15566,-2.57674 3.27892,-1.3566 6.12711,-1.61839 13.5,-1.24086 11.08505,0.56761 19.58117,1.84461 22.34434,3.35845 2.17075,1.18928 12.87472,3.88945 18.5,4.66678 20.22144,2.79433 59.61418,17.51812 64.92192,24.26582 1.97781,2.51439 2.07808,3.844 2.07808,27.55666 0,20.98726 0.25547,25.4193 1.62059,28.11514 2.71193,5.35552 4.42709,6.63178 10.63581,7.91417 4.88659,1.00931 6.13755,1.68754 6.93299,3.75885 1.09375,2.84807 0.40803,26.37081 -1.10855,38.02732 -2.21896,17.05514 -2.97587,21.64091 -4.02251,24.37079 -2.33674,6.09471 -4.9184,26.51205 -6.02246,47.62921 -0.92389,17.67115 -1.93766,24.92965 -4.45197,31.87573 -0.87114,2.40665 -1.58558,6.00665 -1.58764,8 -0.002,1.99335 -0.96682,5.19927 -2.14392,7.12427 -1.3558,2.21725 -2.23557,5.51576 -2.40044,9 -0.14314,3.025 -0.77668,7.975 -1.40788,11 -0.6312,3.025 -1.56937,11.8 -2.08484,19.5 -0.51547,7.7 -1.3379,16.7 -1.82763,20 -0.48974,3.3 -1.40623,9.69275 -2.03666,14.20611 -0.63043,4.51336 -2.25528,10.58836 -3.61079,13.5 -1.35551,2.91164 -2.46896,5.99861 -2.47433,6.85993 -0.0134,2.14547 -11.65687,36.99237 -12.68455,37.96264 -0.45387,0.42851 -5.77522,1.04861 -11.82522,1.378 -6.05,0.32938 -15.5,1.06137 -21,1.62665 -5.5,0.56528 -15.175,1.50024 -21.5,2.0777 -14.24752,1.30077 -71.32913,2.22651 -72.38176,1.17388 z m 66.88176,-15.31536 c 5.5,-0.50493 14.05,-1.39776 19,-1.98407 4.95,-0.58631 13.5,-1.40831 19,-1.82668 12.59363,-0.95794 16.44915,-2.78945 16.48469,-7.83081 0.0128,-1.81181 2.86692,-11.81319 9.79638,-34.32799 0.59247,-1.925 1.77772,-5.40042 2.6339,-7.72317 1.9446,-5.2755 4.52843,-23.85102 5.60245,-40.27683 0.96548,-14.76558 3.19422,-30.68904 4.68887,-33.5 0.58489,-1.1 1.3967,-4.46592 1.80402,-7.47983 0.40732,-3.01391 1.38942,-7.28891 2.18244,-9.5 0.84024,-2.34276 1.82955,-11.11341 2.37103,-21.02017 1.27042,-23.24339 2.26783,-31.19223 6.90133,-55 3.0742,-15.79581 4.04553,-48.56514 1.62724,-54.89735 -1.78503,-4.67403 -5.10666,-7.60265 -8.62291,-7.60265 -1.15551,0 -2.97134,-0.46583 -4.03518,-1.03518 -1.82639,-0.97746 -1.93426,-2.31956 -1.93426,-24.06575 0,-13.1753 -0.42063,-23.81651 -0.98297,-24.86724 -1.6289,-3.04363 -12.83184,-10.88448 -20.91961,-14.64147 -8.97361,-4.16849 -39.19073,-14.39036 -42.53968,-14.39036 -1.28161,0 -5.6439,-1.08232 -9.69397,-2.40515 -4.05007,-1.32283 -9.05127,-2.69322 -11.11377,-3.04531 -2.0625,-0.35209 -3.75,-1.06978 -3.75,-1.59485 0,-0.54839 -4.6814,-0.95469 -11,-0.95469 -6.05,0 -11,0.39752 -11,0.88337 0,1.36227 -3.67937,2.22156 -13.5,3.1528 -15.18915,1.44032 -18.6619,1.94 -28.5,4.10072 -12.21712,2.68322 -29.53179,11.12633 -38.80343,18.92163 -8.03644,6.75677 -17.09886,11.57584 -23.08415,12.27532 -6.59644,0.77089 -7.54212,2.24991 -7.28757,11.39754 0.11889,4.27274 0.84657,10.01862 1.61706,12.76862 0.77049,2.75 1.9609,8.375 2.64537,12.5 0.68446,4.125 1.6138,8.52593 2.0652,9.77985 0.68221,1.89511 0.3901,2.44356 -1.73098,3.25 -1.40344,0.53358 -4.02766,0.97015 -5.83161,0.97015 -2.0624,0 -3.98705,0.7804 -5.1849,2.10237 -1.71132,1.88863 -1.93657,4.08719 -2.21563,21.62573 -0.26866,16.88526 -0.0322,20.73272 1.75,28.47316 1.13335,4.92239 2.06656,10.37831 2.07379,12.12427 0.007,1.74596 1.60201,9.02447 3.54395,16.17447 1.94195,7.15 3.92315,16.375 4.40268,20.5 0.47953,4.125 1.80975,11.74325 2.95604,16.92945 1.1463,5.1862 2.08418,12.70175 2.08418,16.70121 0,3.99947 0.675,9.86326 1.5,13.03065 0.825,3.16739 1.5,8.06782 1.5,10.88986 0,2.82203 0.67013,7.33999 1.48918,10.0399 0.81904,2.69991 1.50342,6.93393 1.52084,9.40893 0.0323,4.58959 1.27285,10.65168 4.9114,24 1.12441,4.125 2.05695,9.525 2.07231,12 0.0153,2.475 0.69805,6.70902 1.51709,9.40893 0.81905,2.69991 1.48918,7.42508 1.48918,10.50037 0,6.4335 1.82295,15.78136 4.87645,25.00586 1.16795,3.52833 2.12355,7.3657 2.12355,8.52749 0,5.0631 4.92509,8.51996 15.30463,10.74212 10.99881,2.35474 78.60258,3.5835 98.19537,1.78478 z m -70.5,-6.51363 c -0.825,-0.24606 -8.1268,-1.06032 -16.22622,-1.80947 -8.09941,-0.74914 -15.36208,-1.88981 -16.13926,-2.53481 -0.77717,-0.64499 -1.64626,-2.17148 -1.9313,-3.39218 -0.28503,-1.2207 -1.71967,-5.36946 -3.18807,-9.21946 -3.47065,-9.09968 -4.78211,-15.38672 -5.00634,-24 -0.10023,-3.85 -1.18515,-11.275 -2.41094,-16.5 -1.22578,-5.225 -3.33624,-14.225 -4.68991,-20 -1.35367,-5.775 -2.86137,-14.84634 -3.35045,-20.15853 -0.48908,-5.31219 -1.31952,-10.48719 -1.84542,-11.5 -0.5259,-1.01281 -1.25316,-5.66647 -1.61614,-10.34147 -1.0529,-13.56113 -2.61241,-28.08896 -3.5961,-33.5 -2.0309,-11.17148 -3.09243,-16.41884 -5.05744,-25 -2.91285,-12.72038 -6.22007,-29.78469 -9.01213,-46.5 -1.19728,-7.16782 -1.19911,-35.16274 -0.002,-38.31006 0.67248,-1.76876 1.97956,-2.63743 4.75,-3.15676 2.10221,-0.39408 5.28471,-1.32729 7.07221,-2.07382 2.75382,-1.15009 3.2433,-1.86127 3.20611,-4.65833 -0.0241,-1.81557 -0.69237,-5.10103 -1.48495,-7.30103 -0.79257,-2.2 -1.45731,-5.8 -1.4772,-8 -0.0199,-2.2 -1.14969,-7.15 -2.51069,-11 -2.68217,-7.5873 -3.22304,-14.6937 -1.23327,-16.20375 0.6875,-0.52174 4.85,-1.80805 9.25,-2.85846 7.0304,-1.67836 8.88862,-2.63872 15.33187,-7.92381 8.21655,-6.73964 16.4441,-12.06506 20.10714,-13.01467 1.34145,-0.34776 3.59145,-1.44519 5,-2.43874 1.40854,-0.99354 4.13599,-2.03619 6.06099,-2.31699 1.925,-0.28081 5.975,-1.0006 9,-1.59955 12.98036,-2.5701 38.15746,-5.36482 49,-5.43912 8.88246,-0.0609 17.3345,1.32113 21.51317,3.51765 1.65725,0.87112 5.25725,1.90418 8,2.29567 15.22723,2.17347 46.97157,14.0377 56.01437,20.93498 3.04944,2.32592 3.2876,2.96058 3.85127,10.26301 0.33046,4.28108 0.8538,14.30878 1.16298,22.28378 0.30918,7.975 1.07074,16.35743 1.69236,18.62763 l 1.13022,4.12763 5.93347,0.53803 c 3.26342,0.29592 6.42946,1.03401 7.03567,1.64022 1.93882,1.93882 0.80944,33.38992 -1.85171,51.56649 -0.32209,2.2 -1.68669,10.75 -3.03243,19 -1.38413,8.48533 -2.87449,23.46907 -3.43153,34.5 -0.62852,12.44619 -1.55768,21.30867 -2.56863,24.5 -0.87115,2.75 -2.47493,10.61749 -3.56394,17.48331 -1.08902,6.86582 -2.41543,14.29082 -2.94758,16.5 -0.53215,2.20918 -1.18793,8.96669 -1.45728,15.01669 -1.22981,27.62258 -1.58846,29.44919 -12.56629,64 -1.57276,4.95 -3.33919,10.9125 -3.92539,13.25 l -1.06582,4.25 -5.21145,0.0148 c -2.8663,0.008 -15.56146,1.38896 -28.21146,3.06847 -20.21494,2.68389 -26.63269,3.10005 -53,3.43683 -16.5,0.21075 -30.675,0.18186 -31.5,-0.0642 z m 59,-10.9595 c 8.525,-0.79477 19.55,-1.93635 24.5,-2.53686 4.95,-0.60051 12.77781,-1.39957 17.39514,-1.77569 l 8.39514,-0.68387 2.428,-8 c 10.16238,-33.48394 11.96696,-41.77445 12.73101,-58.48841 0.36428,-7.96862 1.49287,-18.99362 2.50799,-24.5 1.01512,-5.50637 2.36621,-13.61159 3.00241,-18.01159 1.12024,-7.7476 1.84698,-11.00007 4.58057,-20.5 0.71217,-2.475 1.5299,-12.15 1.81716,-21.5 0.47765,-15.54702 2.39801,-30.62599 5.66721,-44.5 1.67085,-7.09081 2.84398,-19.57667 2.91265,-31 0.0507,-8.43973 -0.37337,-11.71722 -2.16144,-16.70347 -2.18837,-6.10249 -2.2901,-6.20829 -6.25021,-6.5 l -4.02563,-0.29653 0,-22.85767 0,-22.85766 -5.08709,-4.6784 c -7.0802,-6.51139 -26.48222,-15.44947 -44.41291,-20.46004 -3.025,-0.84531 -8.2,-2.28356 -11.5,-3.19612 -3.3,-0.91256 -8.23557,-2.28715 -10.96793,-3.05465 -7.00125,-1.96661 -19.37751,-1.81814 -23.58928,0.28297 -2.12883,1.062 -7.60243,1.9838 -14.90364,2.5099 -12.92201,0.93112 -24.81982,3.63542 -33.03915,7.50958 -6.68174,3.14942 -17.58856,9.82383 -21,12.85091 -3.64678,3.2359 -17.19913,11.21207 -20.42703,12.02222 l -2.77262,0.69588 0.48595,7.61654 c 0.26727,4.1891 1.3893,11.66654 2.4934,16.61654 1.10409,4.95 2.31672,11.31999 2.69472,14.15554 l 0.68727,5.15554 -5.83084,1.68898 c -3.20697,0.92894 -6.39335,2.15155 -7.08085,2.71691 -2.76535,2.27405 -0.84497,45.0118 2.6863,59.78303 3.3479,14.0042 5.1138,22.26302 6.09389,28.5 0.60499,3.85 1.73137,10.375 2.50306,14.5 0.77169,4.125 1.68637,13.35 2.03262,20.5 0.34625,7.15 1.45827,16.375 2.47115,20.5 1.01288,4.125 2.1403,10.425 2.50537,14 0.36507,3.575 1.71295,10.775 2.9953,16 3.8714,15.77422 6.34243,30.10957 6.97537,40.46666 0.47065,7.70148 1.32116,11.73132 3.95044,18.71769 5.24006,13.92355 4.07609,13.06087 20.14954,14.93383 17.73751,2.06687 48.45176,2.23675 68.38696,0.37824 z m -59.5,-6.61512 c -7.15,-0.43613 -14.8,-1.15669 -17,-1.60124 -3.94267,-0.79668 -4.03896,-0.92271 -6.7185,-8.79416 -1.68173,-4.94028 -3.09331,-11.99034 -3.70129,-18.4859 -1.41874,-15.15772 -2.98172,-25.39019 -5.26979,-34.5 -1.10512,-4.4 -2.43202,-11.375 -2.94866,-15.5 -0.51665,-4.125 -1.37811,-9.525 -1.91436,-12 -1.35764,-6.26596 -3.9037,-28.50558 -3.9276,-34.30718 -0.0109,-2.64395 -0.48263,-6.91895 -1.04831,-9.5 -0.56568,-2.58105 -1.47026,-6.71782 -2.01017,-9.19282 -0.53991,-2.475 -1.42392,-8.04967 -1.96446,-12.38815 -0.54054,-4.33848 -2.33596,-13.22309 -3.98983,-19.74357 -1.65387,-6.52048 -3.00703,-13.32378 -3.00703,-15.11845 0,-1.79467 -0.41572,-4.71255 -0.92381,-6.48418 -0.5081,-1.77164 -1.03693,-10.98648 -1.17518,-20.47744 l -0.25136,-17.25627 2.92518,-0.71578 c 1.60884,-0.39368 4.15449,-0.96988 5.65698,-1.28045 1.70018,-0.35144 3.32523,-1.71222 4.30321,-3.60343 1.40929,-2.72528 1.41899,-3.72958 0.094,-9.73551 -2.45449,-11.12526 -5.62902,-27.78764 -5.62902,-29.54523 0,-0.92564 0.79366,-1.65154 1.80572,-1.65154 0.99315,0 3.33057,-1.125 5.19428,-2.5 1.86371,-1.375 3.81729,-2.5 4.34129,-2.5 1.13213,0 8.89951,-6.13762 13.22062,-10.44665 3.38419,-3.37473 17.4175,-10.5796 24.43809,-12.5468 5.52193,-1.54727 13.47369,-2.74646 26.183,-3.94859 5.32565,-0.50373 10.69718,-1.45865 11.93674,-2.12204 3.54898,-1.89936 20.52427,-0.62933 26.41462,1.97625 2.62907,1.16297 6.62187,2.3708 8.87289,2.68408 4.46184,0.62095 10.77133,2.49136 20.09275,5.95637 3.3,1.22669 7.125,2.56775 8.5,2.98012 3.87416,1.16188 17.23916,8.43268 19.75,10.74436 2.19187,2.01801 2.25,2.5977 2.25,22.43705 0,18.41151 0.19244,20.74275 2.00574,24.2971 1.65633,3.24668 2.83221,4.17414 6.75,5.32399 l 4.74426,1.39241 -0.10264,17.68768 c -0.0565,9.72822 -0.59396,20.027 -1.19447,22.88617 -0.60051,2.85918 -1.60944,8.5735 -2.24206,12.6985 -0.63262,4.125 -1.59335,9.88097 -2.13494,12.79104 -0.5416,2.91007 -1.38085,13.03507 -1.86499,22.5 -0.48415,9.46493 -1.30446,19.23396 -1.82291,21.70896 -0.51845,2.475 -1.69596,7.875 -2.6167,12 -0.92074,4.125 -2.06211,10.53583 -2.53637,14.24628 -0.47426,3.71046 -1.16757,7.24024 -1.54069,7.84395 -0.37312,0.60372 -1.04318,7.2429 -1.48902,14.75372 -1.05765,17.81756 -3.43481,35.90862 -5.28515,40.22193 -0.81025,1.88876 -3.39709,10.47759 -5.74854,19.08627 l -4.27537,15.65215 -7.57307,0.58116 c -4.1652,0.31964 -10.72308,0.99655 -14.57308,1.50424 -23.9412,3.15711 -52.61379,3.84512 -83,1.9916 z m 13.69585,-10.6313 c -0.28974,-1.5125 -0.71979,-2.17265 -0.95566,-1.46701 -0.42534,1.2725 0.33557,4.21701 1.08975,4.21701 0.216,0 0.15565,-1.2375 -0.13409,-2.75 z m 11.18571,-0.80194 c 0.34149,-0.88992 0.17385,-1.29132 -0.39301,-0.94098 -0.5437,0.33602 -0.98855,1.0344 -0.98855,1.55194 0,1.43843 0.71677,1.12146 1.38156,-0.61096 z m 6.90046,-1.56604 c -0.55855,-0.55855 -1.89715,-0.59002 -3.28347,-0.0772 -1.41485,0.52339 -1.90471,1.13513 -1.23862,1.5468 0.60603,0.37455 1.38453,0.22365 1.72999,-0.33532 0.99505,-1.61002 2.50257,-1.18281 2.58903,0.73369 0.0533,1.18273 0.2519,1.31644 0.6125,0.4125 0.29345,-0.73563 0.10921,-1.76184 -0.40943,-2.28048 z m 4.41097,-0.61299 c -0.25354,-0.97297 -0.47766,-0.41903 -0.49804,1.23097 -0.0204,1.65 0.18706,2.44606 0.46099,1.76903 0.27392,-0.67703 0.29059,-2.02703 0.0371,-3 z m 36.30701,2.73097 c 0,-0.55 -0.19844,-1 -0.44098,-1 -0.24254,0 -0.7191,0.45 -1.05902,1 -0.33992,0.55 -0.14148,1 0.44098,1 0.58246,0 1.05902,-0.45 1.05902,-1 z m -74,-1.62244 c 0,-1.3288 -0.27149,-1.39713 -1.5,-0.37756 -0.825,0.68469 -1.5,1.41479 -1.5,1.62244 0,0.20766 0.675,0.37756 1.5,0.37756 0.825,0 1.5,-0.7301 1.5,-1.62244 z m 68,-1.43658 c 0,-1.68246 -0.38965,-2.8182 -0.86589,-2.52386 -0.80557,0.49786 -0.36612,5.58288 0.48247,5.58288 0.21088,0 0.38342,-1.37656 0.38342,-3.05902 z m 19,2.18146 c 0,-1.31134 -2.58498,-3.20413 -3.34201,-2.4471 -0.36189,0.3619 -0.6511,1.14549 -0.64268,1.74133 0.008,0.59583 0.45153,0.40833 0.98469,-0.41667 0.82843,-1.2819 0.9716,-1.24555 0.98469,0.25 0.008,0.9625 0.46531,1.75 1.01531,1.75 0.55,0 1,-0.3949 1,-0.87756 z m -65.87591,-2.38911 c -0.98762,-0.98026 -1.10248,-0.8654 -0.5598,0.5598 0.37553,0.98622 0.93469,1.54122 1.24258,1.23333 0.30789,-0.30789 6.4e-4,-1.11479 -0.68278,-1.79313 z m 38.23754,-0.23333 c -0.62715,-1.63433 -2.36163,-2.06275 -2.36163,-0.58333 0,0.759 0.70084,1.27571 2.71862,2.00438 0.12023,0.0434 -0.0404,-0.59605 -0.35699,-1.42105 z m -41.86871,-0.48855 c 0.35034,-0.56686 -0.0511,-0.7345 -0.94098,-0.39301 -1.73242,0.66479 -2.04939,1.38156 -0.61096,1.38156 0.51754,0 1.21592,-0.44485 1.55194,-0.98855 z m -18.76375,-0.61562 c -0.33229,-0.33229 -1.1948,-0.36781 -1.91667,-0.0789 -0.79773,0.31922 -0.56078,0.55618 0.60417,0.60416 1.05416,0.0434 1.64479,-0.19293 1.3125,-0.52522 z m 76,-2 c -0.33229,-0.33229 -1.1948,-0.36781 -1.91667,-0.0789 -0.79773,0.31922 -0.56078,0.55618 0.60417,0.60416 1.05416,0.0434 1.64479,-0.19293 1.3125,-0.52522 z m -23.52361,-47.34302 c 0.2379,-1.62095 0.064,-2.71939 -0.3865,-2.44098 -0.80176,0.49551 -1.19454,5.38817 -0.43256,5.38817 0.21258,0 0.58115,-1.32623 0.81906,-2.94719 z m -24.20556,1.00621 c 0,-0.51754 -0.45,-1.2191 -1,-1.55902 -0.55,-0.33992 -1,0.0835 -1,0.94098 0,0.85746 0.45,1.55902 1,1.55902 0.55,0 1,-0.42344 1,-0.94098 z m 19,-1.05902 c -1.2026,-2.24707 -2.1288,-2.64402 -1.75,-0.75 0.21799,1.08995 1.70123,2.68991 2.53518,2.73469 0.15685,0.008 -0.19648,-0.88469 -0.78518,-1.98469 z m 9.26764,-0.0845 c -0.40408,-1.54521 -0.75429,-1.74609 -1.35359,-0.7764 -0.6316,1.02194 0.40482,2.71465 1.74233,2.84562 0.086,0.008 -0.0889,-0.92273 -0.38874,-2.06922 z m 4.39464,-1.16547 c -0.27741,-0.6875 -0.50439,-0.125 -0.50439,1.25 0,1.375 0.22698,1.9375 0.50439,1.25 0.27741,-0.6875 0.27741,-1.8125 0,-2.5 z m 4,0 c -0.27741,-0.6875 -0.50439,-0.125 -0.50439,1.25 0,1.375 0.22698,1.9375 0.50439,1.25 0.27741,-0.6875 0.27741,-1.8125 0,-2.5 z m 13.7034,-0.98469 c 0.62388,-0.40408 -0.44068,-0.68937 -2.36568,-0.634 -1.925,0.0554 -2.7125,0.30649 -1.75,0.55802 0.9625,0.25152 1.8022,1.43682 1.866,2.63399 0.10824,2.03094 0.14946,2.04277 0.61568,0.17668 0.27483,-1.1 1.01013,-2.33061 1.634,-2.73469 z m 8.55873,1.9618 c 1.18269,-1.54348 1.14607,-1.69139 -0.28297,-1.14301 -0.90279,0.34643 -1.64144,1.33173 -1.64144,2.18956 0,0.85782 0.12734,1.37217 0.28297,1.14301 0.15563,-0.22917 0.89428,-1.21447 1.64144,-2.18956 z m -69.66876,-1.50263 c -0.39107,-1.01962 -0.81688,-1.02624 -2.12243,-0.033 -0.89827,0.6834 -1.77493,1.3241 -1.94814,1.42378 -0.17321,0.0997 0.78189,0.11451 2.12243,0.033 1.52761,-0.0929 2.25476,-0.62435 1.94814,-1.42378 z m -22.25565,-1.8315 c 0,-0.21615 -1.2375,-0.38612 -2.75,-0.3777 -2.00139,0.0112 -2.36635,0.25818 -1.34068,0.90748 1.27333,0.80609 4.09068,0.44121 4.09068,-0.52978 z m 37,-27.83399 c 0,-1.05548 -1.91911,-1.49891 -2.48992,-0.57533 -0.34546,0.55897 0.0734,1.01631 0.9309,1.01631 0.85746,0 1.55902,-0.19844 1.55902,-0.44098 z m 6.5,-2.55902 c 0.33992,-0.55 -0.0835,-1 -0.94098,-1 -0.85746,0 -1.55902,0.45 -1.55902,1 0,0.55 0.42344,1 0.94098,1 0.51754,0 1.2191,-0.45 1.55902,-1 z m 5.76903,0.34406 c -0.67703,-0.27392 -2.02703,-0.29059 -3,-0.0371 -0.97297,0.25354 -0.41903,0.47766 1.23097,0.49804 1.65,0.0204 2.44606,-0.18706 1.76903,-0.46099 z m -32.27694,-36.96741 c -1.50215,-10.00014 -6.67247,-26.31677 -8.56982,-27.04485 -2.39661,-0.91967 -4.02965,1.33192 -5.37173,7.40638 -0.70016,3.169 -2.60799,9.67081 -4.23963,14.44846 -3.27555,9.59123 -3.38771,13.31336 -0.40116,13.31336 1.37433,0 2.2244,-1.12145 3.03204,-4 1.09273,-3.89463 1.2388,-4 5.54549,-4 4.3405,0 4.43843,0.0733 5.238,3.92169 1.11784,5.38017 2.63733,7.14428 4.52645,5.25515 1.19601,-1.19601 1.23443,-2.68248 0.24036,-9.30019 z m -10.68599,-9.37665 c 1.18278,-3.13354 2.6939,-4.02083 2.6939,-1.58179 0,0.78002 0.27314,2.13002 0.60699,3 0.45454,1.18452 -0.026,1.58179 -1.91314,1.58179 -2.38511,0 -2.45946,-0.16072 -1.38775,-3 z m 89.57703,18.36931 c 4.06106,-2.84448 5.11687,-7.2219 5.11687,-21.21475 0,-10.25531 -0.30842,-13.16563 -1.5,-14.15456 -1.19716,-0.99355 -1.80482,-0.99191 -3.00982,0.008 -1.25019,1.03756 -1.40134,3.07915 -0.879,11.87244 0.40922,6.88908 0.22349,12.11233 -0.52873,14.86941 -1.02792,3.76759 -1.49169,4.25 -4.08581,4.25 -1.77785,0 -3.27902,-0.68679 -3.82511,-1.75 -0.49436,-0.9625 -1.19817,-7.59691 -1.56402,-14.74313 -0.70322,-13.73603 -1.87885,-17.18642 -4.97913,-14.61342 -1.06175,0.88118 -1.35781,2.66878 -1.06228,6.4141 0.22534,2.85585 0.68836,9.66277 1.02893,15.1265 0.5709,9.15889 0.83895,10.15377 3.43517,12.75 3.26894,3.26894 8.17731,3.75976 11.85293,1.18526 z m 15.70214,0.49272 c 0.38681,-0.62588 0.61095,-4.63169 0.49807,-8.9018 l -0.20522,-7.76384 4.31094,-0.71644 c 6.15839,-1.02348 9.14397,-2.82627 11.29485,-6.82022 1.64298,-3.05083 1.72731,-4.01136 0.66383,-7.56095 -0.67003,-2.23638 -2.16348,-4.57202 -3.31877,-5.19031 -2.57088,-1.37589 -14.37251,-0.76493 -15.96388,0.82644 -1.73301,1.73301 -2.52352,33.7668 -0.8821,35.7446 1.50322,1.81126 2.64437,1.93244 3.60228,0.38252 z m 1.43004,-25.98119 c 0.0225,-4.96017 1.10708,-6.06683 5.58648,-5.70004 3.00897,0.24639 3.96385,0.77709 4.18595,2.32646 0.44217,3.08454 -1.908,5.47572 -6.04102,6.14642 -3.71212,0.60239 -3.74658,0.57678 -3.73141,-2.77284 z m -46.38167,24.03656 c 3.88697,-2.40227 4.80031,-5.04935 4.1342,-11.98176 -0.58282,-6.06554 -2.5505,-8.39168 -8.32943,-9.84683 -4.62484,-1.16455 -5.12952,-1.92894 -3.40323,-5.15455 0.74773,-1.39714 2.10217,-1.93426 4.87756,-1.93426 2.19549,0 4.37594,-0.64292 5.08726,-1.5 2.05453,-2.47555 -0.51932,-4.5 -5.72123,-4.5 -3.70749,0 -4.96919,0.52758 -7.34569,3.07163 -2.88304,3.08631 -4.6381,8.64873 -3.59035,11.37913 0.30937,0.8062 3.0603,2.19195 6.11319,3.07945 5.89653,1.71417 7.54408,3.50584 7.54408,8.20405 0,5.86788 -4.92385,7.04221 -9.5,2.26574 -3.20107,-3.34119 -6.51245,-3.98019 -6.47776,-1.25 0.0462,3.63459 7.35969,10.22941 11.35973,10.24341 1.03508,0.004 3.39833,-0.93058 5.25167,-2.07601 z m -77.89009,-2.85495 c 2.11191,-3.14288 2.17319,-3.57149 0.71497,-5 -1.4494,-1.41988 -1.79746,-1.31151 -3.8143,1.18755 -2.62021,3.2467 -5.86591,3.52831 -8.64422,0.75 -1.7179,-1.7179 -2,-3.33333 -2,-11.45295 0,-11.69394 1.16533,-14.7722 5.45244,-14.40284 5.15813,0.4444 6.94189,-1.60702 3.97613,-4.57278 -2.51573,-2.51574 -7.20436,-1.94948 -10.41122,1.25737 -3.56621,3.56621 -5.00468,8.70412 -5.01177,17.90096 -0.01,12.9801 3.94849,18.47906 12.96124,18.00513 3.85505,-0.20272 4.78317,-0.70569 6.77673,-3.67244 z m 45.8424,2.79847 c 0.3872,-0.62649 0.60964,-7.57259 0.49433,-15.43577 l -0.20966,-14.29671 3.81469,-0.31422 c 3.04328,-0.25068 3.81469,-0.71866 3.81469,-2.31422 0,-1.85965 -0.66667,-2 -9.5,-2 -8.83333,0 -9.5,0.14035 -9.5,2 0,1.40945 0.76727,2.08911 2.59847,2.3018 l 2.59846,0.3018 0.67419,14.12303 c 0.61757,12.93701 1.46206,16.77337 3.69231,16.77337 0.45019,0 1.13533,-0.51258 1.52252,-1.13908 z m 27.24724,-48.61092 c 0.49696,-0.9625 1.20818,-3.4375 1.5805,-5.5 l 0.67694,-3.75 5.29417,0 c 4.70277,0 5.42381,0.28452 6.45468,2.54705 0.63829,1.40088 1.16052,3.14578 1.16052,3.87756 0,0.73177 0.69758,1.90944 1.55019,2.61704 1.27824,1.06085 1.83079,1.00594 3.14973,-0.313 1.46606,-1.46606 1.15686,-2.81375 -3.70511,-16.14931 -5.5402,-15.19584 -8.00264,-19.13152 -10.33137,-16.5125 -2.50472,2.81694 -10.66344,27.20745 -10.66344,31.87836 0,3.37334 3.30455,4.26546 4.83319,1.3048 z m 5.16681,-16.1849 c 0,-0.5142 0.48164,-2.2017 1.07032,-3.75 1.13387,-2.98225 1.88442,-2.44094 3.3761,2.4349 0.58979,1.92782 0.32073,2.25 -1.87903,2.25 -1.41207,0 -2.56739,-0.42071 -2.56739,-0.9349 z m -41.60699,14.35311 c 0.33385,-0.86998 0.60699,-5.29498 0.60699,-9.83333 0,-4.53835 0.31014,-8.56168 0.68919,-8.94074 0.37906,-0.37906 2.5957,1.18189 4.92586,3.46877 4.87607,4.7855 6.4239,4.66723 9.17814,-0.70132 l 1.89277,-3.6894 0.58363,8.88891 c 0.32099,4.88889 0.8898,9.6764 1.26401,10.6389 0.78174,2.01072 4.05236,2.36154 4.66136,0.5 0.22491,-0.6875 0.10766,-7.69933 -0.26057,-15.58184 -0.50241,-10.75519 -1.04592,-14.70826 -2.17785,-15.84019 -1.34446,-1.34446 -1.78611,-1.20879 -4.06484,1.24872 -1.40607,1.51638 -3.36425,4.25697 -4.3515,6.09019 -0.98726,1.83321 -2.31361,3.33312 -2.94746,3.33312 -0.63385,0 -3.02109,-2.475 -5.30499,-5.5 -6.95872,-9.21676 -8.61842,-7.46399 -9.65118,10.19236 -0.38903,6.651 -0.41283,13.26608 -0.0529,14.70018 0.73584,2.93179 4.01987,3.6042 5.00934,1.02567 z m -18.05488,-2.40821 c 2.83586,-3.37022 5.16616,-12.73855 4.27588,-17.18995 -0.70906,-3.5453 -5.9297,-11.34348 -8.16951,-12.20297 -0.89374,-0.34296 -2.07034,-0.34832 -2.61466,-0.0119 -0.54432,0.33641 -1.67724,-0.36998 -2.5176,-1.56976 l -1.52792,-2.18141 -2.31134,2.17139 c -4.33204,4.06975 -6.7164,11.48304 -6.30618,19.60673 0.33953,6.72352 0.63602,7.56923 3.79691,10.83045 2.97068,3.06496 4.05838,3.53744 8.14356,3.53744 4.00769,0 5.09234,-0.44851 7.23086,-2.99 z m -12.41915,-5.66779 c -2.71948,-5.09366 -0.20022,-19.89233 3.58102,-21.03566 0.55,-0.1663 2.5257,1.9361 4.39045,4.67201 3.18548,4.67365 3.34989,5.31943 2.71962,10.68205 -0.80935,6.8863 -1.86589,8.33939 -6.06354,8.33939 -2.45068,0 -3.54375,-0.62779 -4.62755,-2.65779 z m 105.08102,-7.9013 0,-14.31419 3.25,-0.31336 c 2.47888,-0.23901 3.25,-0.7879 3.25,-2.31336 0,-1.87302 -0.66667,-2 -10.5,-2 -9.83333,0 -10.5,0.12698 -10.5,2 0,1.62793 0.7671,2.05605 4.12345,2.30131 l 4.12345,0.30132 0.44281,13.87482 c 0.46091,14.44219 1.54334,18.31891 4.44297,15.91244 1.03989,-0.86304 1.36732,-4.56252 1.36732,-15.44898 z m 29.38512,13.47079 c 1.46016,-1.14856 3.32085,-3.37621 4.13486,-4.95034 1.88044,-3.63637 1.92509,-14.20527 0.075,-17.76102 -3.04241,-5.84743 -9.34472,-9.30777 -12.04117,-6.61132 -0.77604,0.77604 -2.30181,1.41098 -3.39061,1.41098 -1.53463,0 -2.44983,1.39236 -4.07143,6.19417 -3.90072,11.55069 -2.61568,17.45493 4.61849,21.21992 5.90768,3.07463 7.31527,3.14025 10.67483,0.49761 z m -8.63512,-5.48367 c -2.35038,-1.27511 -2.75,-2.1245 -2.75,-5.84513 0,-2.39428 0.72965,-6.61245 1.62144,-9.37371 1.57641,-4.88109 1.69911,-4.99341 4.41909,-4.04522 3.99204,1.39163 6.11382,6.37147 5.31659,12.47804 -1.10926,8.49655 -2.8803,9.89287 -8.60712,6.78602 z m -146.97254,-8.19052 0.27745,-14.23751 2.8501,0 c 3.71898,0 5.85392,-2.38062 4.06645,-4.53439 -1.01594,-1.22414 -3.21436,-1.47689 -10.87245,-1.25 -8.83755,0.26183 -9.59901,0.44304 -9.59901,2.28439 0,1.61727 0.76546,2.05672 4,2.29638 l 4,0.29637 0.0993,13.80523 c 0.0546,7.59288 0.43406,14.34693 0.84324,15.009 0.40918,0.66206 1.48951,1.06072 2.40073,0.8859 1.434,-0.27512 1.69407,-2.23218 1.93422,-14.55537 z m 80.22254,-36.23751 c 0,-0.55 -0.47656,-1 -1.05902,-1 -0.58246,0 -0.7809,0.45 -0.44098,1 0.33992,0.55 0.81648,1 1.05902,1 0.24254,0 0.44098,-0.45 0.44098,-1 z m -23.87244,-1.75 c 1.26951,-1.61876 1.22245,-1.63998 -0.62756,-0.28297 -1.1,0.80687 -2.1875,1.59437 -2.41667,1.75 -0.22916,0.15563 0.0532,0.28297 0.62756,0.28297 0.57432,0 1.66182,-0.7875 2.41667,-1.75 z m 58.37244,-1.75 c 0,-1.76019 -0.76719,-2.03616 -6.39843,-2.30157 -6.69104,-0.31536 -8.78732,0.57215 -7.74808,3.28036 0.50177,1.3076 1.90038,1.55714 7.38278,1.31721 5.9984,-0.26251 6.76373,-0.52231 6.76373,-2.296 z m -67,-1 c 0,-1.76019 -0.76719,-2.03616 -6.39843,-2.30157 -6.69104,-0.31536 -8.78732,0.57215 -7.74808,3.28036 0.50177,1.3076 1.90038,1.55714 7.38278,1.31721 5.9984,-0.26251 6.76373,-0.52231 6.76373,-2.296 z m 91.22175,-11.60533 c 0.68034,-1.41948 2.84582,-8.24669 4.81217,-15.17158 4.02485,-14.17426 4.40038,-22.15301 1.13524,-24.1201 -1.54991,-0.93374 -2.41034,-0.43657 -5.60734,3.23998 -4.16384,4.78841 -4.41703,4.63963 -5.60685,-3.29465 -1.25269,-8.35355 -5.3381,-7.14599 -7.40605,2.18906 -1.99564,9.00866 -4.00267,15.20398 -7.27742,22.46402 -3.00126,6.65371 -3.13539,9.7986 -0.41789,9.7986 1.98581,0 3.97384,-3.40084 6.57006,-11.23914 2.36671,-7.14536 3.56111,-8.67608 5.36346,-6.87373 1.86641,1.86641 4.19902,1.25865 7.20288,-1.8767 1.5753,-1.64426 3.03471,-2.81904 3.24313,-2.61062 0.51986,0.51985 -2.29738,11.4768 -5.35473,20.8259 -1.38956,4.24913 -2.2262,8.21155 -1.8592,8.80536 1.09414,1.77037 3.87799,0.62719 5.20254,-2.1364 z m -125.09737,-2.5342 c 0.70715,-2.81752 -0.21148,-21.34478 -1.24578,-25.12533 -0.47126,-1.72252 -0.26956,-2.13053 0.84229,-1.70387 0.80405,0.30854 3.35254,4.70273 5.6633,9.76486 6.18919,13.55852 6.53522,14.16096 8.33271,14.50713 2.77822,0.53503 3.88104,-3.4017 4.08638,-14.58707 0.21096,-11.49192 -1.71706,-24.79426 -3.9395,-27.18048 -1.19499,-1.28305 -1.56796,-1.2601 -3.01346,0.1854 -1.5329,1.5329 -1.52709,2.26694 0.0821,10.36979 1.01498,5.11072 1.45782,10.18051 1.06989,12.24835 l -0.66189,3.52822 -3.95909,-6.82438 c -8.76854,-15.11457 -13.0104,-18.86142 -14.52433,-12.82942 -0.3746,1.49252 -0.15818,7.73024 0.48094,13.8616 0.63912,6.13136 1.16204,13.8734 1.16204,17.20454 0,3.33114 0.27314,6.76842 0.60699,7.6384 0.99558,2.59446 4.27422,1.90327 5.01739,-1.05774 z m 32.66837,-6.37611 c 4.02236,-3.16399 5.06969,-7.93267 4.37562,-19.92313 -0.33623,-5.80868 -1.24286,-12.31915 -2.01473,-14.46773 -2.5954,-7.22453 -10.2607,-8.38741 -12.71613,-1.92913 -1.39648,3.67302 -2.2108,19.42941 -1.40708,27.22568 1.01467,9.84252 5.95506,13.6623 11.76232,9.09431 z m -5.05612,-5.14773 c -2.14885,-2.14885 -1.47317,-28.83663 0.73008,-28.83663 2.77699,0 4.32843,24.84654 1.76992,28.3455 -1.00341,1.37225 -1.51782,1.47331 -2.5,0.49113 z m 70.83046,5.12746 c 1.06458,-0.56974 3.07756,-3.28943 4.47328,-6.04375 2.10531,-4.15463 2.63507,-6.91712 3.10934,-16.21409 0.54366,-10.65693 0.45438,-11.37782 -1.82132,-14.70625 -2.53674,-3.71024 -6.79735,-5.10058 -9.29027,-3.03163 -2.12625,1.76462 -5.3419,15.63928 -6.0899,26.27628 -0.57308,8.14939 -0.41652,10.15478 0.95632,12.25 1.75962,2.68553 5.27579,3.28198 8.66255,1.46944 z m -4.06709,-14.75251 c 0,-8.3515 0.38696,-10.82144 2.40224,-15.33334 l 2.40223,-5.37824 1.19265,3 c 1.57823,3.96987 0.75443,14.5472 -1.66908,21.43066 -3.09372,8.78707 -4.32804,7.72642 -4.32804,-3.71908 z m -11,-6.36541 c 0,-15.9562 -0.23622,-18.99959 -1.51273,-19.48943 -3.25951,-1.25079 -4.55508,1.52507 -3.86328,8.27741 0.44369,4.33071 0.30332,6.36585 -0.4391,6.36585 -1.40351,0 -5.03081,-8.18422 -5.82301,-13.13837 -0.75426,-4.71692 -2.70426,-6.6523 -4.88175,-4.84514 -1.28663,1.0678 -1.47845,4.42431 -1.25,21.87244 0.25996,19.85445 0.34329,20.61107 2.26987,20.61107 1.82395,0 2.05032,-0.85722 2.57165,-9.73832 0.31441,-5.35608 0.81561,-9.98227 1.11377,-10.28043 0.80726,-0.80726 4.75453,8.87397 5.71559,14.01828 1.04791,5.60921 2.80826,7.98664 4.73167,6.39036 1.06821,-0.88654 1.36732,-5.27121 1.36732,-20.04372 z m -23.10422,18.34857 c 0.53138,-0.9929 0.78711,-3.5804 0.56828,-5.75 -0.21882,-2.16961 -0.9234,-10.46974 -1.56572,-18.44474 -0.64232,-7.975 -1.57305,-15.2875 -2.06828,-16.25 -1.48092,-2.87821 -3.66097,-2.00176 -5.8903,2.36808 l -2.10089,4.11808 -3.35352,-3.25036 c -5.85347,-5.67341 -6.31519,-4.55244 -6.67603,16.20835 -0.17499,10.06822 0.0517,19.1205 0.50373,20.11618 0.45204,0.99568 1.57903,1.666 2.50442,1.4896 1.42314,-0.27128 1.77725,-2.16912 2.29694,-12.31033 0.76805,-14.98759 0.66996,-14.47195 2.18547,-11.4896 0.90953,1.78986 2.10228,2.51062 4.19899,2.53737 3.54794,0.0453 4.25763,1.94442 4.40145,11.77837 0.1345,9.19673 2.53857,13.46974 4.99546,8.879 z m -94.89578,-93.01324 c 0,-7.65004 2.0403,-15.69173 4.90535,-19.33405 1.05026,-1.33518 2.9149,-5.78457 4.14365,-9.88753 1.22875,-4.10295 2.32606,-7.57808 2.43846,-7.7225 0.11241,-0.14442 3.31121,1.53256 7.10846,3.72663 9.25643,5.34841 19.63459,7.50849 32.15408,6.69246 l 9.25,-0.60293 0,9.38439 0,9.38439 -5.75,0.42961 c -3.1625,0.23628 -8.35946,1.17625 -11.54879,2.08882 -3.18933,0.91256 -7.02237,1.65921 -8.51787,1.65921 -1.49549,0 -4.37466,1.125 -6.39815,2.5 -2.0235,1.375 -4.31461,2.5 -5.09137,2.5 -0.77675,0 -3.94213,1.35 -7.03416,3 -4.10036,2.18808 -6.98018,3 -10.64076,3 l -5.0189,0 0,-6.8185 z m 160.5,-6.31549 c -1.65,-0.52914 -5.7,-1.54039 -9,-2.24722 l -6,-1.28514 -0.66491,-6.41682 c -0.3657,-3.52926 -1.13921,-12.26683 -1.71892,-19.41683 -0.5797,-7.15 -1.54096,-17.5 -2.13614,-23 -0.59518,-5.5 -1.48222,-16.525 -1.9712,-24.5 -1.45689,-23.76116 -2.94542,-39.02115 -4.62556,-47.42011 -1.31254,-6.56134 -1.379,-8.88782 -0.38735,-13.56069 0.66107,-3.11506 1.04189,-10.31509 0.85055,-16.08082 -0.32994,-9.94229 -0.49606,-10.631 -3.48266,-14.43932 -1.7249,-2.19948 -3.41124,-5.34906 -3.74743,-6.99906 -0.33618,-1.65 -1.30572,-14.025 -2.15452,-27.5 -0.84881,-13.475 -2.19663,-30.125 -2.99517,-37 -2.14666,-18.48171 -3.62908,-62.27591 -2.14009,-63.22301 0.64537,-0.4105 3.7609,-0.75326 6.9234,-0.76168 l 5.75,-0.0153 0,14.036 c 0,10.40095 0.63782,17.71713 2.46283,28.25 4.86509,28.07847 5.34805,31.33874 5.95711,40.214 1.34998,19.67219 2.79832,33.28772 4.15539,39.06389 0.78357,3.33514 1.42467,9.21688 1.42467,13.07055 0,3.85366 0.9287,11.24991 2.06378,16.43611 1.13508,5.1862 2.45889,11.90445 2.94179,14.92945 0.4829,3.025 1.3542,7.07203 1.93622,8.9934 0.58201,1.92137 1.08834,6.64637 1.12517,10.5 0.15292,16.00226 4.27019,45.53122 8.81364,63.21109 3.52883,13.73173 5.03762,22.55035 5.61104,32.79551 0.30784,5.5 0.8004,13.0375 1.09458,16.75 l 0.53488,6.75 -3.81055,-0.086 c -2.0958,-0.0473 -5.16055,-0.51889 -6.81055,-1.04804 z m -91.89924,-7.98854 c -0.23886,-0.75761 -0.66569,-4.5818 -0.94851,-8.4982 l -0.51421,-7.12073 3.56155,-3.37927 c 9.03808,-8.57551 21.57218,-31.31647 23.81998,-43.21724 3.70497,-19.61559 1.43112,-23.45681 -15.76957,-26.63951 l -6.75,-1.24898 0,-12.36152 0,-12.36153 7.62484,3.47476 c 7.59622,3.46171 7.6799,3.47475 22.28856,3.47475 12.26473,0 15.2542,-0.30104 18.273,-1.84012 l 3.60929,-1.84012 1.12662,11.59012 c 0.61965,6.37457 1.35331,13.39012 1.63036,15.59012 0.27706,2.2 0.91698,10.75 1.42205,19 0.50508,8.25 1.57685,21.75 2.38173,30 0.80487,8.25 1.759,19.42723 2.12029,24.83829 l 0.65689,9.83828 -6.81681,-0.60835 c -19.45474,-1.7362 -32.04121,-1.74173 -36.95603,-0.0162 -6.64188,2.33182 -20.17041,3.19559 -20.76003,1.32549 z m -31.10076,-31.66393 c -3.85,-0.77221 -7.15,-1.81116 -7.33333,-2.30878 -0.18334,-0.49762 -0.97694,-0.90476 -1.76357,-0.90476 -3.63225,0 -7.97702,-3.736 -10.0138,-8.6107 -0.84586,-2.02443 -2.18363,-4.32648 -2.97281,-5.11566 -0.78918,-0.78919 -1.21669,-1.78791 -0.95002,-2.21939 0.40959,-0.66273 -1.51486,-12.42179 -2.54556,-15.55425 -0.18097,-0.55 -0.003,-3.31309 0.3949,-6.14021 l 0.72395,-5.1402 3.49519,0.78829 c 2.67424,0.60314 3.99409,0.38431 5.61926,-0.93167 2.02339,-1.63844 2.93504,-1.56252 19.23493,1.60174 9.41097,1.82694 22.1927,4.27667 28.40384,5.44385 l 11.29299,2.12214 -0.68001,4.62803 c -0.374,2.54542 -1.06835,4.77803 -1.54298,4.96136 -0.47464,0.18334 -0.86298,0.98906 -0.86298,1.7905 0,0.80143 -0.84751,2.67643 -1.88335,4.16666 -1.03584,1.49023 -4.38268,6.58064 -7.43742,11.31203 -5.06815,7.84988 -5.93138,8.69861 -9.86665,9.70086 -6.97618,1.77671 -13.84073,1.90882 -21.31258,0.41016 z m 7,-62.98384 c -9.9,-1.94172 -18.15718,-3.65742 -18.34928,-3.81266 -0.19211,-0.15525 -0.0485,-2.06256 0.31911,-4.23848 0.55571,-3.28918 1.13307,-4.04914 3.42443,-4.50741 3.24513,-0.64903 12.16046,-8.38283 14.94535,-12.96468 1.07191,-1.76356 2.26136,-5.23147 2.64323,-7.70647 0.38186,-2.475 1.37832,-6.9208 2.21435,-9.87956 2.00466,-7.0946 1.4312,-24.24595 -0.96124,-28.74955 -0.91426,-1.72101 -3.88956,-5.56611 -6.61179,-8.54467 l -4.94952,-5.41555 0.89169,-7.45534 c 0.49044,-4.10043 1.57443,-11.50533 2.40888,-16.45533 0.90795,-5.38604 1.52606,-15.42481 1.5393,-25 0.0204,-14.76331 1.54564,-30.18731 3.95545,-40 0.54028,-2.2 0.99306,-9.7375 1.00618,-16.75 l 0.0239,-12.75 6.45295,0 c 3.54912,0 7.59912,0.52223 9,1.16052 l 2.54705,1.16051 0,45.19427 c 0,24.85684 0.45925,50.84983 1.02055,57.76218 l 1.02054,12.56792 -4.77054,6.82051 -4.77055,6.8205 -0.31149,18.22358 c -0.2818,16.4866 -0.11986,18.65677 1.69899,22.7686 1.10577,2.49977 2.70844,4.81286 3.56149,5.14021 1.30527,0.50088 1.55101,2.95478 1.55101,15.48819 0,8.19115 -0.3375,14.83903 -0.75,14.77306 -0.4125,-0.066 -8.85,-1.70863 -18.75,-3.65035 z m -43.44533,-28.14391 c -4.7064,-1.90833 -7.68425,-5.38913 -11.19498,-13.08579 -1.74428,-3.82404 -1.97265,-5.81618 -1.52031,-13.262 0.60662,-9.98538 2.97195,-15.86971 8.56152,-21.29884 6.95151,-6.75199 11.09073,-6.78331 25.45284,-0.1926 5.06311,2.32344 7.76593,4.33498 10.34522,7.6993 l 3.49149,4.55414 -0.36983,10 c -0.20341,5.5 -0.79802,10.675 -1.32137,11.5 -0.52334,0.825 -1.04751,2.9358 -1.16482,4.69067 -0.27681,4.14109 -4.66441,9.02865 -9.24812,10.30195 -5.78822,1.60789 -18.0172,1.1264 -23.03164,-0.90683 z m 23.64754,-16.33346 c 3.28544,-3.28543 3.81075,-10.78912 1.05046,-15.00503 -3.65422,-5.58127 -15.78774,-5.67579 -19.4076,-0.15119 -0.90727,1.38466 -1.85447,4.64994 -2.1049,7.25616 -0.39285,4.08846 -0.0732,5.19269 2.32967,8.04836 2.70366,3.21312 2.97038,3.29796 9.13392,2.9055 5.22645,-0.3328 6.81736,-0.8727 8.99845,-3.0538 z m 59.29779,13.2306 c -3.025,-1.58967 -6.9625,-3.66949 -8.75,-4.62183 l -3.25,-1.73152 0,-14.38053 c 0,-8.00052 0.45927,-15.23868 1.03518,-16.31479 2.0965,-3.91733 25.79673,-1.8283 38.15403,3.36304 2.26718,0.95245 4.67628,3.11347 6.25,5.6064 2.23292,3.53718 2.56079,5.15374 2.56079,12.62609 0,5.91757 -0.50151,9.55992 -1.62059,11.76987 -3.36043,6.63618 -3.53794,6.70637 -16.7844,6.63696 -11.33927,-0.0594 -12.43867,-0.24398 -17.59501,-2.95369 z m 20.69116,-11.41027 c 4.06703,-4.72821 2.55058,-13.36205 -2.83619,-16.14766 -3.55338,-1.83752 -10.18249,-1.82411 -13.76378,0.0278 -6.74562,3.4883 -6.20109,14.18509 0.90881,17.85254 5.13841,2.6505 12.63272,1.82293 15.69116,-1.73272 z m 8.30884,-37.50916 c -3.28757,-1.91926 -19.57203,-5.06478 -26.32896,-5.08574 -10.50945,-0.0326 -11.31726,-0.91783 -12.62361,-13.83371 -1.10305,-10.90583 -1.48262,-95.8464 -0.44044,-98.56226 0.5194,-1.35354 2.97697,-1.58179 17.03138,-1.58179 12.23666,0 16.53732,0.31871 16.86727,1.25 0.24358,0.6875 0.90575,12.725 1.47149,26.75 1.03158,25.57359 2.12223,39.88205 3.96367,52 0.99971,6.57875 2.61522,40.02565 1.93057,39.96959 -0.20425,-0.0167 -1.04637,-0.42447 -1.87137,-0.90609 z m -127.41006,-7.5635 c 0.40847,-1.65 1.55794,-4.8 2.5544,-7 0.99645,-2.2 1.82162,-4.86805 1.8337,-5.929 0.0121,-1.06095 0.45679,-3.31095 0.98824,-5 2.18691,-6.95037 4.45052,-20.73965 5.10054,-31.071 0.38065,-6.05 1.20563,-13.025 1.83329,-15.5 1.2872,-5.07576 2.91894,-14.58287 4.03337,-23.5 0.41243,-3.3 1.49611,-7.67305 2.40819,-9.71788 0.95667,-2.1448 1.65833,-6.29797 1.65833,-9.81574 0,-3.35383 0.55812,-7.08078 1.24026,-8.28212 0.68215,-1.20134 1.7084,-3.75926 2.28055,-5.68426 l 1.04029,-3.5 12.95971,-0.28167 c 11.31429,-0.24591 13.11965,-0.0629 14.21945,1.44113 1.56168,2.13572 1.76054,31.12222 0.24936,36.34714 -2.29713,7.94235 -3.18781,16.69365 -3.96864,38.9934 -0.45774,13.07241 -1.49533,27.04982 -2.33835,31.5 -0.83352,4.4 -1.78848,9.63415 -2.12213,11.63145 l -0.60664,3.63144 -7.08055,-2.88144 c -3.89429,-1.5848 -7.8479,-2.88145 -8.78579,-2.88145 -0.9379,0 -2.57877,-0.66069 -3.64639,-1.4682 -4.48751,-3.39418 -11.45934,-0.41434 -21.76749,9.30365 l -2.82635,2.66455 0.74265,-3 z m 75.41006,-124.62403 c -7.29265,-3.02584 -11.94114,-5.68501 -15.89079,-9.09032 l -4.39079,-3.78565 -12.85921,0 -12.85921,0 0.0153,-6.75 c 0.008,-3.7125 0.41248,-7.37722 0.89791,-8.14382 1.55294,-2.45246 8.34393,-4.07583 17.08678,-4.08453 6.81754,-0.007 9.09381,0.38479 11.5,1.97835 1.65,1.09275 3.9,2.01967 5,2.05981 1.1,0.0401 5.375,2.04451 9.5,4.45415 18.11785,10.58363 21.08102,11.48604 37.71575,11.48604 11.46754,0 11.70338,-0.0468 18.19103,-3.6129 3.61507,-1.98709 7.92744,-4.75487 9.58305,-6.15061 1.6556,-1.39574 5.89422,-3.83321 9.41915,-5.4166 6.0819,-2.73197 7.02584,-2.86463 18.49629,-2.59939 l 12.08732,0.2795 1.67369,6 c 3.06193,10.97673 3.46976,10.49494 -8.91627,10.53322 -10.30181,0.0318 -10.91677,0.15595 -14.75,2.97698 -5.75035,4.2319 -14.14967,8.00876 -20.5,9.21807 -7.5911,1.4456 -57.79228,1.97863 -61,0.6477 z m 19.5,-27.87089 c -9.75365,-5.13294 -21.85124,-13.57759 -26.18276,-18.27674 -2.71387,-2.9442 -4.78767,-6.63197 -6.32165,-11.24161 -2.11741,-6.36279 -2.20703,-7.55325 -1.23639,-16.42339 1.899,-17.35403 9.17591,-28.91567 22.7408,-36.13082 6.42656,-3.41828 13.30261,-4.7406 29.00588,-5.57803 8.74704,-0.46647 9.13504,-0.39276 13.5,2.56442 2.47177,1.67458 4.99329,3.05288 5.60339,3.06289 1.86177,0.0305 9.14198,6.28047 12.26366,10.52811 4.93468,6.71459 7.68375,24.93237 5.05466,33.49669 -0.58982,1.92137 -1.4677,6.75349 -1.95084,10.73805 -1.20176,9.91125 -3.78333,15.38125 -8.59971,18.2216 -2.13237,1.25753 -6.96948,4.36706 -10.74912,6.91008 l -6.87209,4.62367 -10.12791,0.33131 c -9.73622,0.3185 -10.35997,0.2092 -16.12792,-2.82623 z m 20.51682,-25.10766 c 5.25421,-2.2603 7.32207,-4.6109 8.40874,-9.5585 0.88145,-4.01321 -1.4066,-9.62517 -4.84203,-11.87615 -1.71626,-1.12453 -2.58353,-2.59413 -2.58353,-4.37778 0,-3.29223 -1.65703,-5.08499 -4.7,-5.08499 -1.28692,0 -2.3,-0.60677 -2.3,-1.37756 0,-0.75765 -0.69778,-1.95665 -1.55061,-2.66445 -1.30972,-1.08696 -1.63855,-0.95063 -2.11664,0.87756 -0.43081,1.64745 -1.32639,2.16445 -3.74938,2.16445 -4.08182,0 -5.61697,1.58198 -4.91946,5.06953 0.49026,2.45132 0.0893,3.01572 -3.41102,4.80145 -4.07192,2.07734 -5.66765,4.69908 -6.7737,11.12902 -0.52639,3.06011 -0.17019,3.91787 2.83414,6.82478 6.4694,6.25964 16.81075,7.89819 25.70349,4.07264 z m -21.11894,-4.20821 c -3.10126,-2.10906 -3.39159,-2.73293 -3.32585,-7.14668 0.0547,-3.67245 0.58471,-5.25103 2.203,-6.56144 2.70477,-2.19019 10.57071,-2.47435 12.25677,-0.44277 1.38184,1.66501 5.54102,1.96188 6.4682,0.46168 0.94881,-1.5352 5.17009,-1.18705 6.92857,0.57143 1.78277,1.78276 2.08355,7.60315 0.54179,10.48396 -1.79717,3.35803 -6.37689,4.94461 -14.27282,4.94461 -6.08664,0 -8.0055,-0.41058 -10.79966,-2.31079 z m 13.61738,-16.66453 c -0.40541,-0.65596 -2.02638,-0.83182 -4.09324,-0.44407 -1.88211,0.35308 -3.45302,0.25439 -3.49092,-0.21932 -0.0379,-0.47371 -0.22929,-2.07158 -0.42533,-3.55081 -0.36576,-2.75988 1.66965,-5.43813 3.34564,-4.40231 0.51646,0.31919 1.19705,-0.0921 1.51242,-0.91391 0.74213,-1.93397 3.53165,-1.93022 4.27454,0.006 0.31659,0.825 1.15432,1.5 1.86163,1.5 1.71967,0 2.24798,1.86387 1.55551,5.48779 -0.57805,3.02512 -3.29892,4.54542 -4.54025,2.53689 z m 31.88968,-16.02678 c -1.89545,-0.33799 -2.99417,-1.25784 -3.36161,-2.81435 -0.53902,-2.28333 -0.58335,-2.271 -3.54459,0.98647 -1.64931,1.81429 -2.01561,2.47509 -0.81401,1.46843 2.11771,-1.77414 2.2626,-1.77366 4.72311,0.0156 1.43792,1.04566 2.31462,2.47191 2.02224,3.28985 -0.33899,0.94834 0.22295,0.77673 1.63724,-0.5 l 2.15339,-1.94393 -2.81577,-0.5021 z m -59.90494,-2.9979 c -0.73011,-2.30038 -0.56397,-2.35502 3.01882,-0.99285 1.45696,0.55394 3.03437,0.76899 3.50537,0.4779 0.99685,-0.61609 -0.74801,-6.19633 -2.22242,-7.10757 -0.55072,-0.34036 -0.47796,0.35905 0.16169,1.55425 0.63965,1.1952 1.02205,2.83644 0.84977,3.6472 -0.26405,1.24268 -0.90198,1.17288 -4.06323,-0.44461 -4.0106,-2.05206 -4.41565,-1.68937 -2.58948,2.31863 1.38031,3.02946 2.23862,3.38 1.33948,0.54705 z m 50.47927,-2.47502 c 1.01369,-1.22142 1.05702,-2.14993 0.18919,-4.05459 -1.17542,-2.57977 -2.62119,-3.1649 -3.66138,-1.48184 -0.35034,0.56686 0.0511,0.7345 0.94098,0.39301 2.27439,-0.87277 2.03294,3.87316 -0.30468,5.98868 -1.61878,1.46497 -2.01198,1.49302 -3.06939,0.21891 -0.9511,-1.146 -0.94671,-1.96057 0.0203,-3.77523 1.1213,-2.10411 1.08226,-2.18948 -0.43061,-0.94148 -2.08958,1.72375 -2.09868,2.98946 -0.0378,5.26664 1.74358,1.92664 3.86138,1.3886 6.3534,-1.6141 z m -36.17927,-1.72498 c 0.66,-0.66 1.17148,-1.8975 1.13661,-2.75 -0.0375,-0.91792 -0.44339,-0.60218 -0.99524,0.77424 -0.58073,1.44846 -1.59304,2.19822 -2.68661,1.98979 -2.14939,-0.40968 -2.93313,-4.73436 -1.09225,-6.02707 1.06694,-0.74923 1.03406,-0.85741 -0.16251,-0.53476 -1.60671,0.43323 -2.5097,3.97716 -1.61047,6.32053 0.66711,1.73845 3.76899,1.86875 5.41047,0.22727 z m 27.06455,-2.40206 c 1.65172,-3.62515 1.31537,-4.37764 -0.47785,-1.06907 -0.9116,1.68194 -2.09104,2.61483 -2.90904,2.30093 -0.87435,-0.33552 -1.18196,-0.0228 -0.84397,0.85799 0.74206,1.93379 2.87836,0.87855 4.23086,-2.08985 z m -19.67989,-4.50878 c 0.54878,-0.341 0.28337,-0.87932 -0.60081,-1.21861 -1.28291,-0.4923 -1.55797,0.0988 -1.44767,3.11083 0.10171,2.77732 0.2538,3.08579 0.60082,1.21862 0.25555,-1.375 0.90699,-2.77488 1.44766,-3.11084 z m 14.09096,2.6788 c 0.30488,1.19634 0.53655,0.672 0.60838,-1.37698 0.13679,-3.90211 -1.21703,-3.46182 -3.4513,1.12243 l -1.55309,3.18659 1.95181,-2.43204 c 1.83136,-2.28195 1.9822,-2.31281 2.4442,-0.5 z m -8.03334,-4.72568 c -0.56939,-0.56939 -1.42089,-0.332 -2.20711,0.61534 -1.06401,1.28205 -1.00622,1.54238 0.34239,1.54238 0.89234,0 1.68372,0.7875 1.75862,1.75 0.0832,1.06861 0.31081,0.82902 0.58467,-0.61534 0.24666,-1.30093 0.0313,-2.7825 -0.47857,-3.29238 z m 51.25284,63.14983 c -0.64969,-1.05122 0.99636,-13.84878 2.58635,-20.10813 1.40753,-5.54106 1.0699,-21.73158 -0.58147,-27.88398 -0.81194,-3.025 -1.4816,-6.98306 -1.48813,-8.79569 l -0.0119,-3.29569 6.75,0.29569 6.75,0.29569 0.65743,21 c 0.36159,11.55 1.11624,23.475 1.677,26.5 0.56076,3.025 1.05242,7.1875 1.09257,9.25 l 0.073,3.75 -8.44098,0 c -4.64254,0 -8.7213,-0.45355 -9.0639,-1.00789 z M 276.6184,162.82647 c 0.28311,-5.6375 1.03661,-12.725 1.67446,-15.75 0.63785,-3.025 1.45968,-11.575 1.82629,-19 l 0.66657,-13.5 10.38656,-0.28649 10.38657,-0.28649 -0.53913,4.01949 c -0.29652,2.21072 -1.49818,6.00063 -2.67036,8.42203 -4.3968,9.08258 -5.41622,26.57014 -2.06314,35.39219 1.09973,2.8934 1.9995,6.6059 1.9995,8.25 l 0,2.98927 -11.09102,0 -11.09103,0 0.51473,-10.25 z m 4.66732,-66.250001 0,-5.5 17.56982,0 c 17.48704,0 17.58953,-0.013 21.75,-2.75 11.44394,-7.52859 14.72073,-8.26932 39.36721,-8.89904 l 17.18704,-0.43913 5.39382,3.04408 c 5.35341,3.02128 5.50748,3.04409 20.56297,3.04409 l 15.16914,0 0,8.5 0,8.500001 -11.8625,0 c -11.61379,0 -11.93984,-0.0615 -15.55185,-2.931931 -2.02915,-1.61257 -5.01086,-3.22219 -6.62604,-3.57694 -1.61517,-0.35475 -3.20466,-1.07862 -3.5322,-1.60859 -0.32754,-0.52997 -2.40267,-2.10438 -4.61139,-3.49868 -3.89656,-2.45979 -4.40651,-2.52068 -17.16594,-2.04963 -7.23254,0.26701 -15.91395,0.92125 -19.29202,1.45387 -5.89221,0.92903 -18.94601,6.43983 -24.51243,10.348181 -2.3146,1.62516 -4.65067,1.86372 -18.25,1.86372 l -15.59563,0 0,-5.500001 z m -2.43729,-20.04463 c -0.91702,-1.39955 -2.76877,-2.96342 -4.11501,-3.47525 -3.30237,-1.25556 -3.1342,-4.66181 0.42302,-8.5684 2.61625,-2.87321 3.53699,-3.1688 13.22069,-4.24442 5.72472,-0.63588 14.45859,-1.81769 19.40859,-2.62625 6.38749,-1.04337 17.35941,-1.48041 37.79782,-1.50558 17.98094,-0.0222 33.75674,-0.57476 42,-1.47123 7.2612,-0.78967 18.18377,-1.70873 24.27237,-2.04235 l 11.07019,-0.606575 1.17981,2.589395 c 2.14017,4.69715 1.49093,8.88915 -1.74752,11.28344 -1.61003,1.19035 -3.07253,3.18748 -3.25,4.43806 -0.31578,2.22525 -0.62032,2.27976 -14.26571,2.55327 l -13.94304,0.27947 -4.96161,-3.0843 -4.9616,-3.08431 -20.59536,0.43931 c -26.93076,0.57444 -30.78477,1.24707 -40.32365,7.03756 l -7.63176,4.63279 -15.95496,0 -15.95496,0 -1.66731,-2.54463 z m -4.36654,-22.75298 c -3.64725,-3.763005 -3.97438,-5.688148 -1.36743,-8.047402 1.55008,-1.402807 4.48332,-1.661583 19.25,-1.698271 9.58169,-0.0238 22.37126,-0.665451 28.42126,-1.42588 21.91609,-2.754648 28.06237,-3.639277 31.5,-4.533772 1.925,-0.500898 15.425,-1.3842 30,-1.962895 14.575,-0.578694 29.08689,-1.556547 32.24864,-2.173007 5.37767,-1.048509 5.97413,-0.967266 9.24316,1.259 2.24514,1.528978 3.49698,3.184276 3.50137,4.629837 0.004,1.2375 -0.42151,2.25 -0.94503,2.25 -0.52353,0 -2.46259,1.555542 -4.30903,3.45676 l -3.35716,3.456759 -15.35314,1.084446 c -8.44422,0.596445 -15.84266,1.391709 -16.44097,1.767253 -0.59831,0.375542 -18.86284,1.000462 -40.58784,1.388712 -29.59317,0.52886 -41.25564,1.09047 -46.5,2.23923 -3.85,0.84333 -10.39922,1.54987 -14.55383,1.57008 -7.25255,0.0353 -7.68132,-0.0948 -10.75,-3.26085 z m -1.81213,-14.143977 c -1.03783,-2.704557 0.10322,-5.053772 2.62618,-5.40679 1.36938,-0.191607 4.97862,-1.882172 8.02053,-3.75681 3.18116,-1.960449 7.85423,-3.804216 11,-4.340071 3.00809,-0.512401 9.51925,-1.710297 14.46925,-2.661992 16.68301,-3.207503 22.8692,-3.572861 68.25,-4.030858 50.52927,-0.509958 46.45489,-1.115481 44.15462,6.562129 -1.04957,3.503141 -1.36009,3.706273 -7.42409,4.856604 -3.48079,0.6603 -18.40037,1.677827 -33.15462,2.261171 -14.75425,0.583344 -28.5421,1.512651 -30.63967,2.065126 -3.78873,0.997912 -8.17592,1.616806 -31.18624,4.399393 -16.47111,1.991816 -45.3591,2.024451 -46.11596,0.0521 z m -6.63404,-18.129438 c -1.7412,-1.769777 -0.63326,-9.859736 2.25,-16.428975 2.80558,-6.392266 3,-7.640377 3,-19.259326 l 0,-12.424099 3.86602,-1.158287 c 2.12631,-0.637059 5.28201,-1.158288 7.01266,-1.158288 1.73065,0 6.3944,-0.9 10.36388,-2 3.96948,-1.1 9.96893,-2 13.33211,-2 3.42993,0 8.70777,-0.867373 12.0201,-1.975412 5.46164,-1.827021 8.76085,-1.977258 43.92004,-2 36.13005,-0.02337 38.19982,0.07457 41.74637,1.975412 2.73728,1.467091 5.66433,2.00408 10.9852,2.015313 3.98949,0.0084 7.76685,0.345922 8.39413,0.75 0.62728,0.404078 1.39499,2.984687 1.70603,5.734687 1.3061,11.548019 2.38559,17.221248 3.97147,20.872124 0.92509,2.129668 1.68199,5.604804 1.68199,7.722524 l 0,3.8504 -48.75,0.434024 c -47.53642,0.42322 -61.57299,1.140058 -69.75,3.562086 -2.2,0.651639 -7.375,1.598386 -11.5,2.103882 -12.25554,1.501848 -14.24033,2.072064 -20,5.745874 -5.28289,3.369697 -12.66084,5.253305 -14.25,3.638061 z"
       id="path3050"
       style="fill:#000000" />
  </g>
</svg>
